<?xml version="1.0" encoding="utf-8"?>
<!-- Generator: Adobe Illustrator 24.0.1, SVG Export Plug-In . SVG Version: 6.00 Build 0)  -->
<svg version="1.1" xmlns="http://www.w3.org/2000/svg" xmlns:xlink="http://www.w3.org/1999/xlink" x="0px" y="0px"
	 viewBox="0 0 900 900" style="enable-background:new 0 0 900 900;" xml:space="preserve">
<style type="text/css">
	.st0{fill:#FFBB00;}
	.st1{fill:#2F6E31;}
	.st2{fill:#FBFBFB;}
	.st3{fill:url(#SVGID_1_);}
	.st4{fill:url(#SVGID_2_);}
	.st5{fill:url(#SVGID_3_);}
	.st6{fill:#1F5A27;}
	.st7{fill:url(#SVGID_4_);}
	.st8{fill:#FCFFFE;}
	.st9{fill:url(#SVGID_5_);}
	.st10{fill:#9F211F;}
	.st11{fill:#FFC310;}
	.st12{fill:#0171C2;}
	.st13{fill:#1086D9;}
	.st14{fill:#4896D8;}
	.st15{fill:#99B8E6;}
	.st16{fill:none;}
	.st17{fill:#F4F1F1;}
	.st18{fill:url(#SVGID_6_);}
	.st19{fill:#CFD1D2;}
	.st20{fill:url(#SVGID_7_);}
	.st21{fill:url(#SVGID_8_);}
	.st22{fill:url(#SVGID_9_);}
	.st23{fill:#4B4C57;}
	.st24{fill:url(#SVGID_10_);}
	.st25{fill:#1A1611;}
	.st26{fill:url(#SVGID_11_);}
	.st27{fill:url(#SVGID_12_);}
	.st28{fill:url(#SVGID_13_);}
	.st29{fill:#FBF0C4;}
	.st30{fill:url(#SVGID_14_);}
	.st31{fill:url(#SVGID_15_);}
	.st32{fill:url(#SVGID_16_);}
	.st33{fill:url(#SVGID_17_);}
	.st34{fill:url(#SVGID_18_);}
</style>
<g id="Layer_2">
	<g>
		<circle class="st0" cx="450" cy="451.54" r="435.44"/>
	</g>
	<g>
		<circle class="st1" cx="450" cy="451.54" r="406.64"/>
	</g>
	<g>
		<path d="M450,154.85c163.86,0,296.7,132.84,296.7,296.7S613.86,748.24,450,748.24S153.3,615.4,153.3,451.54
			S286.14,154.85,450,154.85 M450,149.85c-40.73,0-80.24,7.98-117.44,23.71c-35.93,15.2-68.19,36.95-95.9,64.65
			c-27.71,27.71-49.46,59.97-64.65,95.9c-15.73,37.2-23.71,76.71-23.71,117.44s7.98,80.24,23.71,117.44
			c15.2,35.93,36.95,68.19,64.65,95.9c27.71,27.71,59.97,49.46,95.9,64.65c37.2,15.73,76.71,23.71,117.44,23.71
			s80.24-7.98,117.44-23.71c35.93-15.2,68.19-36.95,95.9-64.65c27.71-27.71,49.46-59.97,64.65-95.9
			c15.73-37.2,23.71-76.71,23.71-117.44s-7.98-80.24-23.71-117.44c-15.2-35.93-36.95-68.19-64.65-95.9
			c-27.71-27.71-59.97-49.46-95.9-64.65C530.24,157.82,490.73,149.85,450,149.85L450,149.85z"/>
	</g>
	<g>
		<g>
			<path class="st2" d="M101.94,593.14l-5.14-14.2c-4.35-12.04,3.11-17.19,15.74-21.76c15.23-5.51,23.26-4.74,27.42,6.75l4.94,13.66
				L101.94,593.14z M135.39,571.23l-1.39-3.85c-2.18-6.02-6.4-5.85-18.08-1.63c-9.75,3.53-14.46,6.12-12.07,12.74l1.33,3.67
				L135.39,571.23z"/>
			<path class="st2" d="M82.71,530.57l7.32-1.85l3.99,15.82l10.43-2.63l-3.75-14.89l7.32-1.84l3.75,14.89l11.92-3l-4.14-16.45
				l7.32-1.85l6.4,25.38l-44.31,11.17L82.71,530.57z"/>
			<path class="st2" d="M81.01,522.16l-2.45-15.94c-1.42-9.24,4.86-13.44,11.63-14.48c9.36-1.44,14.49,3.67,15.81,12.27l0.75,4.87
				l18.03-2.77l1.4,9.11L81.01,522.16z M100.04,509.91l-0.62-4.05c-0.55-3.61-3.08-5.74-7.7-5.03c-4.43,0.68-6.69,2.84-5.99,7.4
				l0.58,3.8L100.04,509.91z"/>
			<path class="st2" d="M75.7,480.85l-0.71-11.37l44.85-14.92l0.6,9.58l-9.51,2.71l0.76,12.14l9.78,1.51l0.6,9.58L75.7,480.85z
				 M104.04,477.87l-0.56-8.94l-20.23,5.69l0.01,0.13L104.04,477.87z"/>
			<path class="st2" d="M74.33,450.24l0.71-17.01c0.32-7.55,4.47-11.98,12.27-11.66c6.08,0.25,10.07,2.85,10.94,8.08l0.13,0.01
				c1.09-6.23,4.59-7.05,14.25-6.77c4.8,0.14,7.3-0.02,8.27-1.7l0.38,0.02l-0.42,9.98c-1.32,0.84-3.05,0.96-4.84,0.95l-8.77-0.11
				c-3.59-0.02-5.83,1.49-5.98,5.2l-0.21,4.92l19.31,0.81l-0.38,9.21L74.33,450.24z M94.66,441.86l0.16-3.84
				c0.18-4.41-1.63-6.99-6.55-7.19c-4.22-0.18-6.42,1.97-6.6,6.13l-0.18,4.35L94.66,441.86z"/>
			<path class="st2" d="M80.01,386.15l7.48,1.02l-1.35,9.89l37.8,5.14l-1.24,9.13l-37.8-5.14l-1.35,9.89l-7.48-1.02L80.01,386.15z"
				/>
			<path class="st2" d="M81.43,377.18l3.42-13.26l32.86,1.74l0.03-0.12l-29.58-14.44l3.41-13.2l44.24,11.42l-2.11,8.18l-35.32-9.11
				l-0.03,0.12l33.29,16.98l-1.79,6.94l-37.35-1.25l-0.03,0.12l35.32,9.11l-2.11,8.18L81.43,377.18z"/>
			<path class="st2" d="M104.78,303.28l7.04,2.73l-5.91,15.21l10.02,3.89l5.56-14.32l7.04,2.73l-5.56,14.32l11.46,4.45l6.14-15.81
				l7.04,2.73l-9.47,24.4l-42.6-16.54L104.78,303.28z"/>
			<path class="st2" d="M113.17,285.6l32.95,4.26l0.06-0.11l-27.9-14.18l3.83-7.53l40.74,20.71l-4.76,9.36l-33.63-4.46l-0.06,0.11
				l28.53,14.5l-3.83,7.53l-40.74-20.71L113.17,285.6z"/>
			<path class="st2" d="M141.67,236.87l6.36,4.08l-5.39,8.41l32.11,20.59l-4.97,7.76l-32.11-20.59l-5.39,8.41l-6.36-4.08
				L141.67,236.87z"/>
			<path class="st2" d="M163.83,207.19c8.98-10.51,17.6-5.42,28.16,3.6c10.56,9.02,16.93,16.74,7.95,27.25
				c-8.98,10.51-17.6,5.42-28.16-3.6C161.22,225.41,154.85,217.7,163.83,207.19z M194.78,233.63c3.53-4.14,0.56-7.85-8.78-15.84
				c-9.29-7.94-13.48-10.34-17.01-6.2c-3.53,4.14-0.52,7.89,8.78,15.84C187.11,235.41,191.25,237.77,194.78,233.63z"/>
			<path class="st2" d="M180.81,189.64l18.36-17.75l5.25,5.43l-11.73,11.34l7.47,7.73l11.04-10.68l5.25,5.43l-11.04,10.67
				l13.79,14.27l-6.63,6.4L180.81,189.64z"/>
			<path class="st2" d="M241.02,158.36c-3.95-5.36-6.74-6.88-10.09-4.41c-3.76,2.77-1.86,7.18,5.81,17.58
				c8.2,11.13,11.23,12,14.42,9.64c2.68-1.97,3.61-4.81-2.24-12.74l7.42-5.47c5.85,7.93,8.94,16.23-0.79,23.41
				c-11.13,8.2-18.37,1.3-26.61-9.88c-8.24-11.18-12.7-20.14-1.57-28.34c10.61-7.82,17.12-0.61,21.07,4.74L241.02,158.36z"/>
			<path class="st2" d="M259.39,127.05c11.91-7.01,18.4,0.61,25.44,12.58c7.04,11.97,10.55,21.34-1.36,28.35s-18.4-0.61-25.44-12.58
				C250.98,143.43,247.48,134.06,259.39,127.05z M280.03,162.13c4.69-2.76,3.09-7.24-3.14-17.83c-6.2-10.54-9.37-14.16-14.06-11.4
				c-4.69,2.76-3.06,7.29,3.14,17.83C272.2,161.32,275.34,164.89,280.03,162.13z"/>
			<path class="st2" d="M281.73,115.58l15.5-7.03c6.88-3.12,12.71-1.41,15.94,5.7c2.51,5.54,1.99,10.27-2.28,13.41l0.05,0.12
				c6.06-1.83,8.36,0.92,12.47,9.67c2.04,4.35,3.31,6.51,5.25,6.61l0.16,0.35l-9.09,4.13c-1.35-0.8-2.23-2.29-3.03-3.9l-3.86-7.88
				c-1.6-3.21-3.95-4.53-7.33-3l-4.49,2.04l7.99,17.6l-8.39,3.81L281.73,115.58z M298.38,129.96l3.5-1.59
				c4.02-1.82,5.5-4.6,3.47-9.09c-1.75-3.85-4.66-4.85-8.45-3.13l-3.96,1.8L298.38,129.96z"/>
			<path class="st2" d="M318.12,99.69l16.16-5.35c7.17-2.37,12.79-0.05,15.25,7.36c1.91,5.77,0.89,10.43-3.69,13.09l0.04,0.12
				c6.22-1.18,8.21,1.8,11.37,10.93c1.57,4.54,2.6,6.83,4.52,7.13l0.12,0.36l-9.48,3.14c-1.25-0.93-1.98-2.51-2.6-4.19l-3-8.24
				c-1.25-3.36-3.45-4.93-6.97-3.76l-4.68,1.55l6.07,18.35l-8.75,2.9L318.12,99.69z M333.14,115.75l3.65-1.21
				c4.19-1.39,5.96-3.99,4.41-8.67c-1.33-4.01-4.12-5.31-8.07-4l-4.13,1.37L333.14,115.75z"/>
			<path class="st2" d="M380.41,82.36l1.66,7.37l-15.92,3.58l2.36,10.49l14.99-3.37l1.66,7.37l-14.99,3.37l2.7,11.99l16.55-3.72
				l1.66,7.37l-25.54,5.74L355.5,87.96L380.41,82.36z"/>
			<path class="st2" d="M410.22,93.71c-0.83-6.6-2.52-9.29-6.65-8.78c-4.64,0.58-5.13,5.35-3.52,18.18
				c1.72,13.72,3.94,15.95,7.88,15.46c3.3-0.42,5.5-2.43,4.27-12.21l9.15-1.15c1.23,9.78-0.12,18.53-12.13,20.04
				c-13.72,1.72-16.66-7.84-18.39-21.62c-1.73-13.78-1.25-23.78,12.47-25.5c13.08-1.64,15.24,7.83,16.07,14.43L410.22,93.71z"/>
			<path class="st2" d="M453.16,75.89l0.23,7.55l-9.98,0.3l1.15,38.12l-9.21,0.28l-1.15-38.12l-9.98,0.3l-0.23-7.55L453.16,75.89z"
				/>
			<path class="st2" d="M457.29,121.89l1.62-45.67l9.21,0.33l-1.62,45.67L457.29,121.89z"/>
			<path class="st2" d="M491.48,77.52c13.74,1.51,14.38,11.49,12.87,25.3s-4.31,23.41-18.05,21.9
				c-13.74-1.51-14.38-11.49-12.87-25.3C474.95,85.62,477.74,76.01,491.48,77.52z M487.04,117.98c5.41,0.59,6.81-3.95,8.15-16.17
				c1.33-12.15,0.96-16.96-4.45-17.55s-6.81,4.02-8.15,16.17C481.25,112.65,481.63,117.39,487.04,117.98z"/>
			<path class="st2" d="M526.75,83.99l4.13,32.96l0.13,0.03l6.75-30.56l8.25,1.82l-9.85,44.63l-10.25-2.26l-4.1-33.68l-0.13-0.03
				l-6.9,31.25l-8.25-1.82l9.85-44.63L526.75,83.99z"/>
			<path class="st2" d="M553.1,123.25l-0.42,1.27c-1.36,4.07-1.07,7.06,3.54,8.6c2.67,0.89,5.79,0.04,7-3.6
				c1.32-3.95-0.2-6.07-5.3-10c-6.88-5.26-9.39-9.67-6.98-16.9c2.81-8.44,9.41-11.03,17.67-8.28c7.77,2.59,12.3,7.81,9.53,16.13
				l-0.41,1.21l-8.38-2.79c1.36-4.07,0.75-6.9-2.59-8.01c-3.95-1.31-5.81,0.83-6.66,3.38c-0.89,2.67-0.65,4.57,2.53,7.39l5.77,5.16
				c5.61,5.04,6.19,8.94,4.43,14.23c-3.06,9.17-10.02,11.44-19.49,8.28c-9.9-3.3-12.25-9.21-9.57-17.22l0.59-1.76L553.1,123.25z"/>
			<path class="st2" d="M612.71,113.12l10.19,5.1l-9.63,46.28l-8.59-4.3l2.44-9.59l-10.88-5.44l-6.21,7.7l-8.58-4.3L612.71,113.12z
				 M601.06,139.14l8.01,4.01l5.25-20.35l-0.12-0.06L601.06,139.14z"/>
			<path class="st2" d="M649.02,133.17l-7.56,32.35l0.11,0.07l16.93-26.32l7.11,4.57l-24.72,38.44l-8.83-5.68l7.84-33.01l-0.11-0.07
				l-17.31,26.92l-7.11-4.57l24.72-38.44L649.02,133.17z"/>
			<path class="st2" d="M674.63,150.39l11.74,9.5c9.95,8.05,6.22,16.32-2.23,26.76c-10.19,12.58-17.46,16.08-26.97,8.39l-11.29-9.14
				L674.63,150.39z M657.3,186.43l3.18,2.58c4.97,4.03,8.51,1.7,16.32-7.95c6.52-8.06,9.22-12.71,3.75-17.14l-3.03-2.46
				L657.3,186.43z"/>
			<path class="st2" d="M716.41,186.67l11.53,12.53c5.11,5.56,5.31,11.63-0.43,16.92c-4.47,4.12-9.13,5.1-13.44,2.02l-0.09,0.09
				c3.63,5.18,1.74,8.22-5.28,14.86c-3.49,3.3-5.15,5.18-4.64,7.05l-0.28,0.26l-6.76-7.35c0.33-1.53,1.48-2.84,2.75-4.1l6.28-6.13
				c2.55-2.52,3.07-5.17,0.55-7.9l-3.34-3.63l-14.22,13.09l-6.24-6.78L716.41,186.67z M707.95,206.97l2.6,2.83
				c2.99,3.25,6.09,3.79,9.72,0.45c3.11-2.86,3.15-5.94,0.33-9l-2.95-3.2L707.95,206.97z"/>
			<path class="st2" d="M757.82,236.22l-6.03,4.55l-9.83-13.03l-8.58,6.48l9.25,12.26l-6.03,4.55l-9.25-12.26l-9.81,7.4l10.22,13.54
				l-6.03,4.55l-15.77-20.89l36.48-27.53L757.82,236.22z"/>
			<path class="st2" d="M762.81,243.45l4.81,7.86l-14.9,9.11l5.61,9.17l14.9-9.11l4.81,7.86l-38.98,23.84l-4.81-7.86l17.31-10.58
				l-5.61-9.17l-17.31,10.58l-4.81-7.86L762.81,243.45z"/>
			<path class="st2" d="M786.84,285.6l4.88,10.29l-36.09,30.52l-4.12-8.67l7.83-6.05l-5.21-10.98l-9.64,2.23l-4.12-8.67
				L786.84,285.6z M761.63,298.91l3.84,8.09l16.67-12.8l-0.05-0.12L761.63,298.91z"/>
			<path class="st2" d="M799.53,313.64l5.1,14.56c2.5,7.13,1.64,13.19-6.63,16.09c-4.65,1.63-9,0.64-11.71-3.22l-0.12,0.04
				c1.01,5-1.54,9.35-7.27,11.36c-6.76,2.37-13.79,1.1-17.34-9.04l-5.14-14.68L799.53,313.64z M765.86,335.2l1.18,3.38
				c1.46,4.17,3.96,6.48,8.98,4.72c5.01-1.76,5.47-5.1,4.13-8.91l-1.31-3.74L765.86,335.2z M784.88,328.54l0.87,2.48
				c1.67,4.77,4.06,6.37,8.11,4.96c4.11-1.44,4.92-3.96,3.42-8.25l-1.1-3.14L784.88,328.54z"/>
			<path class="st2" d="M767.3,361.58l44.13-11.82l2.38,8.9l-44.13,11.82L767.3,361.58z"/>
			<path class="st2" d="M771.08,375.47l44.82-8.92l1.8,9.04l-37.41,7.45l3.19,16.01l-7.41,1.47L771.08,375.47z"/>
			<path class="st2" d="M776.23,403.38l45.3-5.99l1.21,9.14l-45.3,5.99L776.23,403.38z"/>
			<path class="st2" d="M825.54,441.4l-7.54,0.49l-0.65-9.96l-38.06,2.48l-0.6-9.2l38.06-2.48l-0.65-9.96l7.54-0.49L825.54,441.4z"
				/>
			<path class="st2" d="M825.43,453.43l-0.23,11.39L779.28,476l0.19-9.6l9.7-1.92l0.24-12.16l-9.62-2.3l0.19-9.6L825.43,453.43z
				 M796.93,454.08l-0.18,8.96l20.63-4.01l0-0.13L796.93,454.08z"/>
			<path class="st2" d="M821.76,505.86l-7.51-0.79l1.05-9.93l-37.93-4.01l0.97-9.17l37.93,4.01l1.05-9.93l7.51,0.79L821.76,505.86z"
				/>
			<path class="st2" d="M775.61,503.77l45.02,7.82l-1.58,9.08l-45.02-7.82L775.61,503.77z"/>
			<path class="st2" d="M814.89,543.75c-3.38,13.41-13.36,12.67-26.82,9.28c-13.47-3.39-22.6-7.48-19.22-20.88
				s13.36-12.67,26.82-9.28C809.13,526.27,818.27,530.35,814.89,543.75z M775.42,533.81c-1.33,5.28,2.98,7.29,14.9,10.29
				c11.85,2.99,16.66,3.28,17.99-2c1.33-5.28-3.04-7.3-14.9-10.29C781.5,528.81,776.75,528.53,775.42,533.81z"/>
			<path class="st2" d="M803.62,577.84l-33.21-0.45l-0.04,0.12l29.34,10.89l-2.94,7.92l-42.84-15.9l3.65-9.84l33.92,0.57l0.04-0.12
				l-30-11.13l2.94-7.92l42.84,15.9L803.62,577.84z"/>
		</g>
	</g>
	<radialGradient id="SVGID_1_" cx="427.12" cy="444.4" r="279.2746" gradientUnits="userSpaceOnUse">
		<stop  offset="0.3631" style="stop-color:#F3F6FF"/>
		<stop  offset="1" style="stop-color:#4E92D0"/>
	</radialGradient>
	<path class="st3" d="M746.7,451.54c0,1.15-0.01,2.3-0.02,3.45c-0.01,0.77-0.02,1.54-0.04,2.3c-0.03,1.66-0.07,3.32-0.14,4.97
		c-0.02,0.87-0.06,1.74-0.1,2.61c0,0.14-0.01,0.27-0.02,0.41H153.62c-0.01-0.14-0.02-0.27-0.02-0.41c-0.04-0.87-0.08-1.74-0.1-2.61
		c-0.07-1.65-0.11-3.31-0.14-4.97c-0.02-0.76-0.03-1.53-0.04-2.3c-0.01-1.15-0.02-2.3-0.02-3.45c0-9.27,0.42-18.44,1.26-27.49
		c13.87-150.97,140.85-269.2,295.44-269.2c82.12,0,156.45,33.36,210.17,87.27c10.24,10.27,19.73,21.29,28.37,32.97
		c0.59,0.78,1.16,1.57,1.74,2.36c2.43,3.34,4.79,6.74,7.08,10.2c0,0.01,0,0.01,0.01,0.01c2.32,3.49,4.56,7.03,6.73,10.63
		c0.45,0.74,0.9,1.49,1.33,2.24c1.95,3.27,3.83,6.58,5.63,9.93c0.76,1.38,1.49,2.76,2.22,4.16c1.07,2.06,2.13,4.14,3.15,6.23
		c2.06,4.19,4.02,8.43,5.89,12.73c1.73,3.99,3.38,8.03,4.93,12.11c1.93,5.04,3.72,10.15,5.37,15.32c0.5,1.55,0.99,3.1,1.45,4.66
		c0.45,1.48,0.89,2.96,1.31,4.45c0.58,2.04,1.14,4.09,1.68,6.15c0.44,1.67,0.86,3.34,1.26,5.02c0.44,1.77,0.85,3.55,1.25,5.34
		c3.7,16.59,6.01,33.69,6.81,51.2v0.01c0.05,0.88,0.09,1.76,0.11,2.64C746.63,444.15,746.7,447.84,746.7,451.54z"/>
	<linearGradient id="SVGID_2_" gradientUnits="userSpaceOnUse" x1="153.81" y1="608.56" x2="746.2" y2="608.56">
		<stop  offset="0.2235" style="stop-color:#5F9042"/>
		<stop  offset="1" style="stop-color:#FFFDF1"/>
	</linearGradient>
	<path class="st4" d="M746.2,468.88c0,0.1-0.01,0.2-0.02,0.3c0,0.13-0.01,0.25-0.02,0.37c-0.04,0.65-0.08,1.31-0.13,1.96
		c-0.04,0.7-0.09,1.41-0.14,2.11c0,0,0,0-0.01,0.01c0,0.14-0.01,0.26-0.03,0.4c-0.01,0.23-0.02,0.47-0.05,0.7
		c-0.06,0.9-0.14,1.8-0.22,2.7c0,0.09-0.01,0.17-0.02,0.25c0,0.04,0,0.08-0.01,0.12c-0.01,0.04-0.01,0.08-0.02,0.13
		c0,0.07,0,0.13-0.01,0.2c-0.06,0.76-0.13,1.52-0.21,2.28c-0.09,0.91-0.18,1.81-0.27,2.72c0,0,0,0.01-0.01,0.02
		c-0.01,0.17-0.03,0.35-0.05,0.52c-0.12,1.11-0.25,2.21-0.38,3.31c-0.07,0.64-0.15,1.27-0.24,1.9c-0.06,0.56-0.13,1.13-0.21,1.69
		c-0.08,0.65-0.17,1.31-0.27,1.96c-0.05,0.45-0.11,0.89-0.18,1.34c-0.01,0.09-0.02,0.18-0.04,0.27c-0.15,1.08-0.31,2.16-0.48,3.24
		c-0.04,0.26-0.08,0.52-0.13,0.77c-0.03,0.2-0.06,0.41-0.1,0.61c-0.1,0.65-0.2,1.3-0.31,1.94c-0.05,0.35-0.11,0.7-0.18,1.06
		c-0.05,0.3-0.1,0.59-0.15,0.88l-0.36,2.07c-0.6,3.3-1.25,6.59-1.96,9.85c-0.26,1.22-0.53,2.44-0.81,3.65
		c-0.03,0.11-0.05,0.22-0.08,0.33c-0.01,0.07-0.03,0.13-0.04,0.19c-0.05,0.22-0.11,0.45-0.16,0.68l-0.01,0.01
		c-0.21,0.92-0.43,1.85-0.65,2.76c-0.13,0.51-0.25,1.01-0.38,1.51l-0.18,0.75h-0.01c-0.1,0.42-0.2,0.83-0.31,1.25
		c-0.58,2.26-1.19,4.51-1.83,6.75c-0.31,1.1-0.62,2.2-0.95,3.3c-0.11,0.38-0.23,0.75-0.34,1.12c-0.28,0.97-0.58,1.94-0.88,2.91
		c-0.33,1.05-0.66,2.1-1,3.15c-0.25,0.77-0.5,1.54-0.76,2.31c-0.26,0.78-0.52,1.56-0.79,2.34c-0.03,0.08-0.06,0.17-0.09,0.25
		c-0.26,0.78-0.53,1.54-0.8,2.31c-0.28,0.8-0.56,1.59-0.85,2.38c-0.38,1.08-0.78,2.14-1.18,3.21c-0.02,0.05-0.03,0.1-0.05,0.14
		c-0.27,0.71-0.54,1.42-0.81,2.12c-0.24,0.64-0.49,1.28-0.74,1.91c-0.56,1.42-1.13,2.84-1.71,4.25c-0.01,0.03-0.02,0.05-0.03,0.08
		c-0.36,0.88-0.72,1.76-1.1,2.64c-0.05,0.14-0.11,0.27-0.17,0.41c-0.32,0.76-0.65,1.52-0.98,2.28c-0.28,0.66-0.57,1.32-0.87,1.98
		c-0.11,0.25-0.22,0.5-0.33,0.74c-0.39,0.89-0.79,1.78-1.2,2.67c-0.09,0.18-0.17,0.36-0.25,0.54c-0.32,0.7-0.65,1.4-0.98,2.1
		c-0.36,0.78-0.73,1.55-1.11,2.33c-0.44,0.93-0.89,1.86-1.35,2.78c-0.67,1.37-1.36,2.73-2.06,4.09c-0.42,0.84-0.86,1.67-1.3,2.5
		c-0.01,0.01-0.01,0.03-0.02,0.04c-0.55,1.05-1.11,2.1-1.67,3.14c-0.47,0.86-0.93,1.72-1.41,2.57c-0.56,1.02-1.13,2.04-1.71,3.05
		c-0.49,0.87-0.99,1.72-1.49,2.58c-0.39,0.69-0.79,1.37-1.2,2.05c-0.88,1.49-1.78,2.97-2.69,4.44c-0.9,1.47-1.82,2.92-2.74,4.37
		c-0.01,0.01-0.02,0.02-0.02,0.03c-0.84,1.31-1.69,2.61-2.55,3.9c-0.17,0.26-0.35,0.52-0.51,0.77c-0.89,1.33-1.79,2.65-2.7,3.96
		c-0.98,1.42-1.98,2.83-2.99,4.24c-0.98,1.37-1.98,2.73-2.98,4.09c-0.03,0.03-0.05,0.06-0.07,0.09c-1.01,1.36-2.04,2.7-3.07,4.04
		c-0.03,0.05-0.07,0.09-0.1,0.13c-1.01,1.31-2.03,2.61-3.06,3.9c-0.04,0.04-0.07,0.08-0.1,0.12c-0.6,0.76-1.21,1.5-1.82,2.25
		c-0.92,1.13-1.84,2.25-2.78,3.36c-0.62,0.74-1.25,1.48-1.88,2.21c-0.74,0.87-1.49,1.73-2.25,2.59c-0.67,0.77-1.35,1.53-2.03,2.29
		c-1.25,1.4-2.52,2.79-3.8,4.16c-0.68,0.74-1.36,1.46-2.06,2.19c-0.54,0.57-1.09,1.15-1.65,1.72c-0.71,0.74-1.43,1.48-2.15,2.21
		c-0.79,0.81-1.59,1.61-2.4,2.41c-0.01,0.01-0.01,0.01-0.02,0.02c-1.09,1.09-2.2,2.17-3.31,3.23c-0.08,0.08-0.16,0.16-0.24,0.23
		c-1,0.97-2.01,1.92-3.03,2.86c-0.09,0.09-0.18,0.18-0.27,0.26c-0.66,0.62-1.34,1.24-2.01,1.85c-0.47,0.44-0.94,0.87-1.42,1.29
		c-0.75,0.68-1.5,1.35-2.25,2.01c-0.86,0.76-1.72,1.52-2.59,2.26c-0.86,0.75-1.73,1.49-2.61,2.23c-0.87,0.74-1.75,1.48-2.64,2.2
		c-3.54,2.92-7.14,5.75-10.81,8.5c-0.82,0.62-1.65,1.23-2.48,1.84c-0.09,0.07-0.19,0.14-0.28,0.21c-1.16,0.84-2.32,1.68-3.49,2.5
		c-0.04,0.04-0.08,0.07-0.13,0.1c-1.25,0.88-2.51,1.76-3.78,2.63c-1.16,0.8-2.33,1.59-3.5,2.37c-1.17,0.78-2.35,1.55-3.53,2.31
		c-0.86,0.56-1.73,1.11-2.6,1.66c-0.03,0.02-0.07,0.04-0.11,0.06c-0.96,0.61-1.92,1.21-2.89,1.8c-0.98,0.6-1.96,1.2-2.95,1.79
		c-0.72,0.43-1.44,0.86-2.16,1.28c-0.59,0.35-1.18,0.69-1.77,1.03c-0.12,0.07-0.24,0.14-0.36,0.21c-0.02,0.01-0.05,0.03-0.08,0.05
		c-0.94,0.54-1.89,1.08-2.85,1.61c-0.14,0.08-0.29,0.16-0.44,0.24c-0.91,0.51-1.82,1.02-2.74,1.51c-0.13,0.08-0.26,0.15-0.39,0.22
		c-0.11,0.06-0.23,0.12-0.34,0.18c-0.87,0.47-1.74,0.94-2.62,1.4c-1.02,0.54-2.04,1.07-3.06,1.59c-0.08,0.05-0.16,0.09-0.25,0.13
		c-0.86,0.44-1.72,0.88-2.58,1.3c-1.15,0.58-2.3,1.15-3.47,1.71c-0.59,0.28-1.19,0.57-1.79,0.85c-0.88,0.43-1.76,0.84-2.65,1.25
		c-1.91,0.88-3.83,1.75-5.76,2.59c-1.07,0.47-2.14,0.93-3.21,1.38c-1.11,0.47-2.23,0.94-3.34,1.39c-2.3,0.94-4.62,1.86-6.96,2.74
		c-1.09,0.42-2.18,0.82-3.28,1.22c-0.48,0.18-0.97,0.36-1.46,0.53c-1.52,0.55-3.05,1.09-4.58,1.61c-2.63,0.89-5.27,1.76-7.93,2.58
		c-1.07,0.33-2.14,0.66-3.21,0.97c-1.16,0.35-2.33,0.69-3.51,1.02c-0.09,0.03-0.17,0.05-0.26,0.07c-0.75,0.22-1.5,0.43-2.25,0.63
		c-0.33,0.09-0.66,0.18-1,0.27c-0.02,0.01-0.04,0.02-0.07,0.02c-0.56,0.15-1.11,0.31-1.67,0.45c-0.56,0.15-1.12,0.3-1.68,0.44
		c-0.18,0.05-0.36,0.1-0.54,0.14c-0.02,0.01-0.04,0.01-0.06,0.01c-1.03,0.27-2.07,0.52-3.11,0.78c-1.08,0.27-2.17,0.53-3.27,0.78
		c-0.87,0.2-1.73,0.4-2.6,0.59c-0.67,0.15-1.35,0.3-2.02,0.44c-0.96,0.21-1.93,0.41-2.9,0.61c-0.59,0.13-1.19,0.25-1.79,0.36
		c-0.6,0.12-1.2,0.23-1.8,0.35c-0.03,0.01-0.07,0.02-0.12,0.02c-0.47,0.1-0.94,0.18-1.41,0.27c-0.47,0.09-0.95,0.17-1.42,0.26
		c-0.52,0.1-1.04,0.19-1.57,0.28c-0.6,0.11-1.19,0.21-1.79,0.31c-0.8,0.14-1.6,0.27-2.4,0.4c-0.89,0.14-1.79,0.28-2.69,0.42
		c-0.13,0.02-0.25,0.04-0.38,0.05c-0.84,0.14-1.7,0.26-2.55,0.37c-0.87,0.13-1.75,0.25-2.63,0.36c-0.91,0.13-1.82,0.24-2.73,0.35
		c-0.04,0.01-0.08,0.02-0.12,0.02c-1.09,0.13-2.18,0.26-3.27,0.38c-0.25,0.03-0.49,0.06-0.74,0.08c-0.06,0.01-0.11,0.01-0.17,0.02
		c-0.98,0.11-1.95,0.21-2.93,0.3c-0.9,0.09-1.79,0.18-2.69,0.25c-1.1,0.1-2.19,0.19-3.29,0.27c-0.69,0.06-1.37,0.11-2.06,0.15
		c-0.88,0.07-1.76,0.13-2.65,0.19c-1.1,0.07-2.21,0.13-3.32,0.18c-1.27,0.07-2.53,0.12-3.8,0.17c-1.27,0.05-2.54,0.09-3.81,0.12
		c-2.55,0.07-5.1,0.1-7.66,0.1s-5.11-0.03-7.66-0.1c-1.27-0.03-2.54-0.07-3.81-0.12c-1.27-0.05-2.53-0.1-3.8-0.17
		c-1.11-0.05-2.22-0.11-3.32-0.18c-0.89-0.06-1.77-0.12-2.65-0.19c-0.69-0.04-1.37-0.09-2.06-0.15c-1.1-0.08-2.19-0.17-3.29-0.27
		c-0.9-0.07-1.79-0.16-2.69-0.25c-0.98-0.09-1.95-0.19-2.93-0.3c-0.06-0.01-0.11-0.01-0.17-0.02c-0.25-0.02-0.49-0.05-0.74-0.08
		c-1.09-0.12-2.18-0.25-3.27-0.38c-0.04,0-0.08-0.01-0.12-0.02c-0.91-0.11-1.82-0.22-2.73-0.35c-0.88-0.11-1.76-0.23-2.63-0.36
		c-0.85-0.11-1.71-0.23-2.55-0.37c-0.13-0.01-0.25-0.03-0.38-0.05c-0.9-0.14-1.8-0.28-2.69-0.42c-0.8-0.13-1.6-0.26-2.4-0.4
		c-0.6-0.1-1.19-0.2-1.79-0.31c-0.53-0.09-1.05-0.18-1.57-0.28c-0.47-0.09-0.95-0.17-1.42-0.26c-0.47-0.09-0.94-0.17-1.41-0.27
		c-0.05,0-0.09-0.01-0.12-0.02c-0.6-0.12-1.2-0.23-1.8-0.35c-0.6-0.11-1.2-0.23-1.79-0.36c-0.97-0.2-1.94-0.4-2.9-0.61
		c-0.67-0.14-1.35-0.29-2.02-0.44c-0.87-0.19-1.73-0.39-2.6-0.59c-1.1-0.25-2.19-0.51-3.27-0.78c-1.04-0.26-2.08-0.51-3.11-0.78
		c-0.02,0-0.04,0-0.06-0.01c-0.18-0.04-0.36-0.09-0.54-0.14c-0.56-0.14-1.12-0.29-1.68-0.44c-0.56-0.14-1.11-0.3-1.67-0.45
		c-0.03,0-0.05-0.01-0.07-0.02c-0.34-0.09-0.67-0.18-1-0.27c-0.75-0.2-1.5-0.41-2.25-0.63c-0.09-0.02-0.17-0.04-0.26-0.07
		c-1.18-0.33-2.35-0.67-3.51-1.02c-1.07-0.31-2.14-0.64-3.21-0.97c-2.66-0.82-5.3-1.69-7.93-2.58c-1.53-0.52-3.06-1.06-4.58-1.61
		c-0.49-0.17-0.98-0.35-1.46-0.53c-1.1-0.4-2.19-0.8-3.28-1.22c-2.34-0.88-4.66-1.8-6.96-2.74c-1.11-0.45-2.23-0.92-3.34-1.39
		c-1.07-0.45-2.14-0.91-3.21-1.38c-1.93-0.84-3.85-1.71-5.76-2.59c-0.89-0.41-1.77-0.82-2.65-1.25c-0.6-0.28-1.2-0.57-1.79-0.85
		c-1.17-0.56-2.32-1.13-3.47-1.71c-0.86-0.42-1.72-0.86-2.58-1.3c-0.09-0.04-0.17-0.08-0.25-0.13c-1.02-0.52-2.04-1.05-3.06-1.59
		c-0.88-0.46-1.75-0.93-2.62-1.4c-0.11-0.06-0.23-0.12-0.34-0.18c-0.13-0.07-0.26-0.14-0.39-0.22c-0.92-0.49-1.83-1-2.74-1.51
		c-0.15-0.08-0.3-0.16-0.44-0.24c-0.96-0.53-1.91-1.07-2.85-1.61c-0.03-0.02-0.06-0.04-0.08-0.05c-0.12-0.07-0.24-0.14-0.36-0.21
		c-0.59-0.34-1.18-0.68-1.77-1.03c-0.72-0.42-1.44-0.85-2.16-1.28c-0.99-0.59-1.97-1.19-2.95-1.79c-0.97-0.59-1.93-1.19-2.89-1.8
		c-0.04-0.02-0.08-0.04-0.11-0.06c-0.87-0.55-1.74-1.1-2.6-1.66c-0.08-0.05-0.16-0.1-0.24-0.15c-1.17-0.76-2.34-1.53-3.5-2.3
		c-1.01-0.67-2.02-1.35-3.02-2.04c-0.52-0.36-1.04-0.71-1.56-1.07c-0.45-0.31-0.9-0.62-1.34-0.95c-0.66-0.45-1.31-0.91-1.96-1.37
		c-1.03-0.74-2.06-1.49-3.09-2.24c-0.83-0.61-1.66-1.22-2.48-1.84c-3.67-2.75-7.27-5.58-10.81-8.5c-0.89-0.72-1.77-1.46-2.64-2.2
		c-0.88-0.74-1.75-1.48-2.61-2.23c-0.87-0.74-1.73-1.5-2.59-2.26c-0.75-0.66-1.5-1.33-2.25-2.01c-0.48-0.42-0.95-0.85-1.42-1.29
		c-0.67-0.61-1.35-1.23-2.01-1.85c-0.09-0.08-0.18-0.17-0.27-0.26c-1.02-0.94-2.03-1.89-3.03-2.86c-0.08-0.07-0.16-0.15-0.24-0.23
		c-1.11-1.06-2.22-2.14-3.31-3.23c-0.01-0.01-0.01-0.01-0.02-0.02c-0.81-0.8-1.61-1.6-2.4-2.41c-0.72-0.73-1.44-1.47-2.15-2.21
		c-0.16-0.15-0.31-0.31-0.45-0.46c-0.55-0.57-1.09-1.14-1.63-1.71c-1.84-1.94-3.65-3.91-5.43-5.9c-0.68-0.76-1.36-1.52-2.03-2.29
		c-0.76-0.86-1.51-1.72-2.25-2.59c-0.75-0.87-1.49-1.74-2.22-2.62c-0.71-0.84-1.41-1.68-2.1-2.53c-0.12-0.14-0.23-0.28-0.34-0.42
		c-0.61-0.75-1.22-1.49-1.82-2.25c-0.59-0.73-1.17-1.47-1.75-2.21c-0.48-0.61-0.96-1.22-1.43-1.84c-0.39-0.49-0.77-0.99-1.15-1.49
		c-0.57-0.75-1.15-1.51-1.71-2.27c-0.28-0.37-0.56-0.74-0.83-1.11c-0.52-0.71-1.05-1.42-1.56-2.13c-1.18-1.62-2.34-3.26-3.49-4.91
		c-0.54-0.77-1.08-1.55-1.61-2.34c-0.05-0.07-0.1-0.14-0.16-0.22c-0.54-0.8-1.08-1.61-1.62-2.42c-0.56-0.84-1.11-1.67-1.66-2.52
		c-1.65-2.53-3.26-5.08-4.83-7.66c-0.6-0.98-1.19-1.97-1.78-2.96c-0.41-0.68-0.81-1.36-1.2-2.05c-0.6-1.02-1.19-2.05-1.77-3.08
		c-0.74-1.29-1.46-2.58-2.16-3.88c-0.42-0.77-0.84-1.54-1.25-2.31c-0.37-0.69-0.74-1.38-1.1-2.07c-0.01-0.01-0.01-0.03-0.02-0.04
		c-0.44-0.83-0.88-1.66-1.3-2.5c-0.56-1.08-1.11-2.16-1.64-3.25c-0.28-0.56-0.55-1.11-0.83-1.67c-0.59-1.19-1.16-2.39-1.73-3.6
		c-0.46-0.97-0.91-1.94-1.36-2.91c-0.05-0.11-0.1-0.21-0.15-0.32c-0.39-0.86-0.77-1.71-1.15-2.57c-0.13-0.26-0.24-0.53-0.36-0.8
		c-0.43-0.97-0.85-1.94-1.27-2.91c-0.46-1.07-0.92-2.14-1.36-3.21c-0.45-1.07-0.89-2.15-1.32-3.23c-0.44-1.08-0.87-2.16-1.29-3.25
		c-0.42-1.07-0.83-2.14-1.23-3.22c-0.02-0.03-0.04-0.07-0.05-0.12c-0.4-1.07-0.79-2.13-1.18-3.21c-0.38-1.06-0.76-2.13-1.13-3.2
		c-0.03-0.07-0.06-0.15-0.08-0.22c-0.76-2.16-1.48-4.34-2.19-6.53c-0.36-1.12-0.71-2.24-1.06-3.36c-0.32-1.05-0.64-2.1-0.96-3.16
		c-0.37-1.24-0.73-2.48-1.08-3.73c-0.3-1.09-0.6-2.18-0.9-3.27c-0.61-2.28-1.2-4.57-1.76-6.86c-0.28-1.15-0.55-2.3-0.82-3.45
		c-0.04-0.18-0.08-0.35-0.12-0.52c-0.28-1.22-0.55-2.43-0.81-3.65c-0.7-3.25-1.35-6.51-1.95-9.8c-0.21-1.17-0.42-2.35-0.62-3.53
		c-0.12-0.72-0.24-1.45-0.35-2.17c-0.24-1.44-0.46-2.89-0.67-4.35c-0.1-0.73-0.2-1.45-0.3-2.18c-0.18-1.21-0.34-2.43-0.48-3.65
		c-0.54-4.21-0.98-8.45-1.33-12.72c-0.1-1.21-0.19-2.42-0.28-3.63c-0.08-1.22-0.16-2.43-0.23-3.65H746.2z"/>
	<radialGradient id="SVGID_3_" cx="450" cy="467.08" r="209.5762" gradientUnits="userSpaceOnUse">
		<stop  offset="0.3631" style="stop-color:#F3F6FF"/>
		<stop  offset="1" style="stop-color:#4E92D0"/>
	</radialGradient>
	<path class="st5" d="M746.38,465.28c0,0.1,0,0.2-0.01,0.3c-0.02,0.46-0.04,0.92-0.07,1.38c-0.03,0.64-0.06,1.28-0.1,1.92H153.81
		c-0.03-0.3-0.05-0.6-0.05-0.9c-0.02-0.15-0.02-0.3-0.03-0.45c-0.01-0.15-0.02-0.3-0.03-0.45c-0.03-0.6-0.06-1.2-0.08-1.8H746.38z"
		/>
	<path class="st6" d="M746.7,451.54c0,1.15-0.01,2.3-0.02,3.45c-0.01,0.77-0.02,1.54-0.04,2.3c-0.03,1.66-0.07,3.32-0.14,4.97
		c-0.02,0.87-0.06,1.74-0.1,2.61c0,0.14-0.01,0.27-0.02,0.41c0,0.1,0,0.2-0.01,0.3c-0.02,0.46-0.04,0.92-0.07,1.38
		c-0.03,0.64-0.06,1.28-0.1,1.92h0.17c-0.06,0.1-0.13,0.2-0.19,0.3c0,0.13-0.01,0.25-0.02,0.37c-0.04,0.65-0.08,1.31-0.13,1.96
		c-0.04,0.7-0.09,1.41-0.14,2.11h-0.01v0.01c-6.04,2.3-12.75,2.35-19.25,2.64c-8.3,0.38-16.09,1.47-23.88,2.85
		c-2.04,0.35-4.07,0.73-6.11,1.12c-4.71,0.89-9.47,1.84-14.39,2.76c-15.85,2.94-32.02,3.61-48.1,4.89
		c-1.95,0.15-3.89,0.31-5.83,0.49c-1.69,0.15-3.38,0.32-5.08,0.49c-0.02,0-0.04,0.01-0.07,0.01c-9.48,0.96-18.97,2.13-28.46,2.77
		c-3.47,0.24-6.94,0.4-10.41,0.46c-5.38,0.09-10.77-0.06-16.14-0.61c-0.04,0-0.08-0.01-0.12-0.01c-3.34-0.34-6.69-0.86-10.01-1.56
		c-1.47-0.31-2.93-0.66-4.39-1.05c-3.03-0.79-6.02-1.75-8.92-2.89c-9.67-3.75-18.47-9.37-25.08-17.11c-0.98-1.15-1.92-2.35-2.79-3.6
		c-0.24-0.31-0.45-0.63-0.67-0.95c-3.72-5.53-6.07-11.71-7.99-18.08v-0.01c0.01-0.01,0-0.01,0-0.01c-0.66-2.18-1.27-4.38-1.87-6.59
		c-0.2-0.72-0.39-1.45-0.59-2.17c0.29-0.18,0.58-0.37,0.87-0.55c0.68-0.43,1.37-0.86,2.05-1.29c0.23-0.15,0.47-0.29,0.7-0.44
		c8.06-5.08,16.12-10.15,24.18-15.23c0.52-0.33,1.07-0.67,1.69-0.76c0.84-0.11,1.66,0.27,2.43,0.62c7.2,3.32,15.07,5.2,23,5.5
		c1.03,0.04,2.11,0.05,3.04-0.4c0.84-0.39,1.48-1.1,2.09-1.79c3.36-3.81,6.72-7.61,10.08-11.41c0.22-0.25,0.45-0.51,0.68-0.76
		c3.69-4.13,7.83-8.29,13.25-9.18c1.33-0.21,2.69-0.22,3.97-0.6c1.66-0.49,3.08-1.56,4.38-2.7c5.33-4.63,9.4-10.5,14.07-15.79
		c4.67-5.3,10.25-10.21,17.09-11.96c8.18,9.53,16.95,18.53,26.26,26.95c0.71,0.64,1.47,1.31,2.4,1.56c0.99,0.27,2.05,0.05,3.07,0.22
		c3.89,0.67,7.27,6.61,9.63,9.39c3.11,3.64,6.82,7.01,11.52,8.37c0.34,0.1,0.73,0.18,1.04-0.01c0.31-0.2,0.4-0.6,0.6-0.91
		c0.64-0.92,2.02-0.63,3.14-0.64c2.08-0.02,3.86-1.4,5.55-2.62c2.27-1.64,4.66-3.1,7.16-4.36c0.49-0.24,1.01-0.49,1.56-0.5
		c1.81-0.04,2.73,2.26,4.39,3c0.23,1.21,0.51,1.37,1.74,1.39c0.41,0.01,0.86-0.06,1.2,0.16c0.3,0.2,0.42,0.57,0.55,0.9
		c0.61,1.56,1.79,2.81,2.95,4.02c4.34,4.55,8.68,9.11,13.03,13.67c0.79,0.83,2.21,1.64,2.9,0.73c0.34-0.45,0.25-1.11,0.57-1.57
		c0.51-0.74,1.64-0.52,2.46-0.17c5.27,2.25,9.75,6.5,15.36,7.52v0.01c0.05,0.88,0.09,1.76,0.11,2.64
		C746.63,444.15,746.7,447.84,746.7,451.54z"/>
	<linearGradient id="SVGID_4_" gradientUnits="userSpaceOnUse" x1="508.037" y1="444.7634" x2="666.8727" y2="444.7634">
		<stop  offset="0.1676" style="stop-color:#1F5A27"/>
		<stop  offset="0.2735" style="stop-color:#255E2C"/>
		<stop  offset="0.4116" style="stop-color:#35693B"/>
		<stop  offset="0.5676" style="stop-color:#507B53"/>
		<stop  offset="0.7366" style="stop-color:#769474"/>
		<stop  offset="0.9143" style="stop-color:#A5B59E"/>
		<stop  offset="1" style="stop-color:#BFC6B5"/>
	</linearGradient>
	<path class="st7" d="M635.73,461.36c2.92-1.24,6.01-2.12,8.72-3.76c2.71-1.64,5.07-4.27,5.36-7.43c1.03-1.1,2.97-0.39,4.25-1.17
		c1.61-0.99,1.16-3.48,2.13-5.11c1.03-1.73,3.35-2.06,5.11-3.03c2.96-1.62,4.35-5.09,5.24-8.35c0.21-0.76,0.4-1.55,0.3-2.34
		c-0.16-1.22-1.01-2.22-1.87-3.1c-2.74-2.8-5.98-5.05-9.03-7.51c-5.52-4.45-10.44-9.63-14.61-15.37c-0.31-0.42-0.65-0.88-1.15-1.02
		c-0.46-0.13-0.95,0.02-1.37,0.25c-2.41,1.3-3.46,4.8-6.17,5.16c-1.46,0.2-2.89-0.69-3.76-1.87c-0.87-1.18-1.3-2.63-1.7-4.04
		c-1.84-0.04-3.08,1.79-4,3.39c-3.09,5.37-6.65,11.29-11.92,14.79c-2.46,1.63-5.34,2.62-8.29,1.89c-4.06-1-5.83-3.21-10.09-0.32
		c-2.25,1.53-4.3,3.6-6.98,4.13c-4,0.79-8.22-2.96-7.91-7.02c0.1-1.38,0.64-2.71,0.61-4.09c-0.05-2.14-1.45-4.02-3.04-5.46
		c-5.82-5.23-14.29-6.08-22.12-6.03c-4.41,0.03-8.87,0.26-13.08,1.56c-4.62,1.42-8.75,4.06-12.78,6.72
		c-3.07,2.03-5.97,4.1-9.23,5.77c-3.12,1.6-6.72,3.88-8.67,6.88c-3.01,4.64-1.32,10.77,0.59,15.96c3.01,8.14,6.35,16.15,10.02,24.01
		c1.22,2.61,2.51,5.26,4.6,7.24c5.16,4.91,13.21,4.31,20.32,4.77c16.85,1.1,32.62,9.9,49.51,9.98c10.8,0.06,21.25-3.47,31.47-6.95
		c4.02-1.37,8.05-2.74,11.87-4.61c2.48-1.21-3.67-7.16-4.35-7.71C630.68,465.17,632.21,462.86,635.73,461.36z"/>
	<path class="st8" d="M532.39,424.55c1.3-0.81,2.71-1.64,4.25-1.6c1.16,0.03,2.24,0.55,3.31,1.02c6.04,2.67,12.68,3.97,19.27,3.77
		c0.35-0.01,0.73-0.02,1.03,0.17c0.62,0.4,0.48,1.36,0.06,1.96c-0.9,1.27-2.59,1.73-4.15,1.72c-0.55-0.01-1.13-0.05-1.62,0.19
		c-0.58,0.28-0.92,0.88-1.3,1.41c-1.46,2.01-3.9,3.12-6.36,3.48c-2.45,0.37-4.95,0.08-7.42-0.21c1.33-0.46,2.33-1.73,2.46-3.13
		c-3.98,0.58-7.95,1.17-11.93,1.75c-1.91,0.28-3.83,0.56-5.74,0.84c-1.33,0.19-2.62,0.64-3.95,0.83c-1.51,0.22-3.05,0.16-4.58,0.14
		c-0.15,0-0.35-0.03-0.39-0.18c-0.04-0.13,0.08-0.25,0.18-0.33c2.36-2,4.94-3.63,7.43-5.45
		C526.01,428.7,529.16,426.57,532.39,424.55z"/>
	<path class="st8" d="M544.78,447.29c3.28-4.46,7.86-7.76,12.24-11.14c6.87-5.31,13.56-11.18,17.77-18.77
		c1.89-3.42,3.68-7.52,7.42-8.65c0.91-0.27,1.87-0.34,2.75-0.7c1.9-0.77,3.21-2.83,5.25-3.13c0.79-0.12,1.59,0.05,2.38-0.05
		c0.87-0.11,1.67-0.55,2.42-1c6.25-3.81,10.85-9.74,15.61-15.31s10.09-11.06,17-13.48c5.17,3.63,8.4,9.9,13.68,13.37
		c0.63,0.41,1.3,0.78,1.78,1.36c0.46,0.55,0.69,1.25,0.99,1.9c1.66,3.56,5.26,5.73,8.67,7.7c0.79,0.46,1.58,0.91,2.37,1.37
		c3.05,1.76,6.15,3.55,8.63,6.06c2.51,2.54,4.29,5.71,6.65,8.39c2.36,2.68,5.63,4.95,9.19,4.73c-1.11,1.47-2.22,2.94-3.34,4.41
		c-0.99,1.3-2,2.63-3.35,3.54c-5.83,3.91-13.96-1.73-20.61,0.53c-0.45-3.09-0.9-6.17-1.35-9.26c-2.15,1.65-3.17,4.33-4.08,6.88
		c0.36-3.04,0.72-6.11,0.3-9.14c-0.42-3.03-1.72-6.05-4.12-7.94c1.17,4.85,2.34,9.7,3.51,14.54c0.17,0.7,0.34,1.44,0.1,2.12
		c-0.23,0.68-1.04,1.21-1.68,0.89c-2.59-6.37-4.39-13.06-5.37-19.87c-1.92,1.16-2.19,3.79-2.24,6.03
		c-0.08,3.57-0.16,7.14-0.25,10.72c-0.04,1.73-0.1,3.54-0.95,5.04s-2.78,2.56-4.35,1.84c-2.32-1.05-1.94-4.42-1.18-6.85
		c1.36-4.34,2.72-8.68,4.09-13.02c-3.23,3.09-3.8,7.92-5,12.23s-4.07,8.99-8.53,9.12c3.33-8.69,4.92-18.03,4.67-27.33
		c-2.17,2.16-2.28,5.57-3.33,8.45c-3.12,8.54-14.32,12.02-17.36,20.59c-2.82-0.99-4.61-4.31-3.88-7.21c-0.5,2.57-2.7,4.5-5.05,5.68
		s-4.93,1.83-7.26,3.03c1.44-2.3,2.88-4.59,4.32-6.89c-3.58,2.22-7.17,4.44-10.75,6.66c-1.34,0.83-3.21,1.61-4.33,0.5
		c-0.42-0.42-0.6-1.01-0.74-1.58c-0.49-1.96-0.69-3.98-0.59-5.99c-4.11,3.61-7.51,8.02-9.97,12.9c-2.26-1.93-5.79-2.2-8.32-0.65
		C554.4,442.45,548.68,444.31,544.78,447.29z"/>
	<path class="st6" d="M575.74,425.65c-1.39,1.31-2.77,2.62-4.16,3.92c-1,0.95-2.01,1.9-2.91,2.94c-1.07,1.25-1.98,2.62-2.71,4.1
		c-0.54-0.67-0.57-1.61-0.47-2.46c0.2-1.73,0.81-3.41,1.74-4.88c0.22-0.35,0.89-1.61,1.32-1.4c0.37,0.19,0.16,1.77,0.27,2.08
		C571.13,428.44,573.2,426.8,575.74,425.65z"/>
	<path class="st6" d="M596.86,407.64c-2.55,0.47-4.49,2.47-6.26,4.36c-0.69,0.74-1.38,1.48-1.86,2.37c-0.43,0.81-0.67,1.7-0.88,2.59
		c-0.59,2.54-0.96,5.13-1.33,7.72c-1.18-0.03-2.35-0.05-3.53-0.08c0.12-2.43,0.25-4.85,0.37-7.28c-0.75-0.02-1.5,0.2-2.12,0.61
		c-0.39-0.52-0.33-1.28-0.01-1.85s0.83-1,1.34-1.41c2.67-2.17,5.34-4.34,8-6.51c0.74-0.6,1.49-1.21,2.34-1.62
		c0.8-0.38,1.92-0.74,2.82-0.61c0.47,0.07,0.54-0.02,0.81,0.31C596.64,406.34,596.81,407.65,596.86,407.64z"/>
	<path class="st6" d="M624.84,385.43c-0.56,0.58-0.81,1.39-1.23,2.08c-0.41,0.68-0.98,1.25-1.54,1.82
		c-2.16,2.17-4.47,4.43-7.43,5.21c-0.23,0.06-0.48,0.12-0.64,0.3c-0.17,0.2-0.18,0.49-0.19,0.76c-0.09,1.89-0.97,3.64-1.89,5.29
		c-2.92,5.26-6.42,10.21-10.39,14.72c0.63,0.77,1.38,1.46,2.21,2.02c4.29-5.86,8.63-11.82,11.09-18.65c1.6,0.46,3.25,0.75,4.92,0.86
		c0.77,3.14-0.53,6.38-1.8,9.35c3.25-1.47,5.53-4.87,5.65-8.44c3.52,0.11,7.04,0.31,10.54,0.62c-2.6-1.25-4.3-3.94-4.91-6.76
		c-0.64-2.94-0.06-5.67,0.35-8.58c0.19-1.34-0.14-1.59-1.4-1.59C627.01,384.45,625.72,384.51,624.84,385.43z"/>
	<path class="st6" d="M647.52,408.64c2.06,0.06,4.04,0.85,5.79,1.95c1.75,1.09,3.28,2.48,4.81,3.87c-0.94-3.16-2.71-6.06-5.08-8.34
		C650.66,403.83,648.89,406.72,647.52,408.64z"/>
	<path class="st6" d="M662.91,413.75c0.32,0.38,0.65,0.76,0.98,1.13c0.89,1.01,1.78,2.02,2.48,3.17c0.7,1.15,1.27,2.62,1.31,3.98
		c0.04,1.5-0.84,3.05-1.02,4.54c0.7-0.4,1.4-0.8,2.11-1.21c1.17-0.67,2.47-1.57,2.55-2.92c0.06-1.12-0.76-2.06-1.49-2.9
		c-2.38-2.72-4.4-5.75-6.68-8.55c-2.35-2.88-5.03-5.42-8.17-7.42c0.39,0.25,0.74,1.02,1.02,1.39c0.37,0.5,0.75,1,1.12,1.49
		c0.76,0.99,1.52,1.98,2.3,2.95C660.56,410.86,661.71,412.33,662.91,413.75z"/>
	<path class="st8" d="M723.13,435.52c-1.64-0.12-3.27-0.24-4.91-0.36c0.74,2.5-0.95,5.44-3.48,6.07c-1.17-1.34-2.34-2.68-3.52-4.02
		c-0.43-0.5-0.92-1.03-1.57-1.1c-1.49-0.17-2.4,2.04-3.9,1.95c1.18-1.83,2.43-3.6,3.77-5.31c-1.62,0.34-3.01,1.34-4.3,2.38
		c-1.63,1.3-3.17,2.71-4.62,4.21c-0.68,0.7-1.36,1.44-2.27,1.77c-1.5,0.56-3.14-0.13-4.59-0.8c-0.67-0.31-1.47-0.9-1.21-1.59
		c0.17-0.44,0.69-0.61,1.14-0.73c0.79-0.19,1.57-0.39,2.35-0.59c0.05-0.73-0.53-1.34-1.08-1.83c-1.24-1.12-2.51-2.19-3.82-3.22
		c-1.16-0.91-2.47-1.82-3.95-1.77c-1.42,0.04-2.63,0.98-3.79,1.8c-1.26,0.89-2.59,1.69-3.97,2.39c-0.8,0.42-1.71,0.8-2.58,0.56
		c-1.28-0.37-1.81-1.9-1.89-3.22c-0.01-0.15-0.02-0.31-0.02-0.46c0.42-0.47,0.83-0.94,1.25-1.4c2.98-3.31,5.97-6.65,9.49-9.37
		c4.35-3.37,9.39-5.71,14.38-8.02c0.41-0.19,0.85-0.39,1.3-0.33c0.52,0.07,0.93,0.45,1.3,0.81c6.59,6.47,13.17,12.94,19.76,19.4
		c0.4,0.39,0.85,0.79,1.32,1.14C723.55,434.44,723.36,434.98,723.13,435.52z"/>
	<linearGradient id="SVGID_5_" gradientUnits="userSpaceOnUse" x1="646.9065" y1="452.6697" x2="746.7" y2="452.6697">
		<stop  offset="0" style="stop-color:#1F5A27"/>
		<stop  offset="0.1273" style="stop-color:#255E2C"/>
		<stop  offset="0.2932" style="stop-color:#35693B"/>
		<stop  offset="0.4805" style="stop-color:#507B53"/>
		<stop  offset="0.6836" style="stop-color:#769474"/>
		<stop  offset="0.897" style="stop-color:#A5B59E"/>
		<stop  offset="1" style="stop-color:#BFC6B5"/>
	</linearGradient>
	<path class="st9" d="M746.7,451.54c0,1.15-0.01,2.3-0.02,3.45c-0.01,0.77-0.02,1.54-0.04,2.3c-0.03,1.66-0.07,3.32-0.14,4.97
		c-0.02,0.87-0.06,1.74-0.1,2.61c0,0.14-0.01,0.27-0.02,0.41c0,0.1,0,0.2-0.01,0.3c-0.02,0.46-0.04,0.92-0.07,1.38
		c-0.03,0.64-0.06,1.28-0.1,1.92h0.17c-0.06,0.1-0.13,0.2-0.19,0.3c-0.18,0.26-0.37,0.5-0.58,0.74c-2.77,3.16-7.5,3.46-11.7,3.53
		c-13.1,0.22-26.19,0.44-39.28,0.66c-3.52,0.06-7.04,0.12-10.55,0.17c-7.39,0.13-14.78,0.26-22.17,0.38
		c-1.46,0.02-2.93,0.05-4.39,0.07c-1.11,0.02-3.46,0.11-5.67-0.15c-2.43-0.29-4.68-1-4.91-2.72c-0.11-0.83,0.18-1.92,0.58-2.98
		c0.25-0.68,0.55-1.35,0.82-1.92c0.11-0.25,0.22-0.48,0.32-0.69c0.16-0.33,0.32-0.67,0.5-0.99c0.84-1.58,1.89-3.06,3.12-4.36
		c2.52-2.66,5.75-4.64,7.88-7.61c1.25-1.74,2.07-3.74,3.02-5.66c2.97-5.94,7.33-11.04,11.75-16c0,0.15,0.01,0.31,0.02,0.46
		c0.08,1.32,0.61,2.85,1.89,3.22c0.87,0.24,1.78-0.14,2.58-0.56c1.38-0.7,2.71-1.5,3.97-2.39c1.16-0.82,2.37-1.76,3.79-1.8
		c1.48-0.05,2.79,0.86,3.95,1.77c1.31,1.03,2.58,2.1,3.82,3.22c0.55,0.49,1.13,1.1,1.08,1.83c-0.78,0.2-1.56,0.4-2.35,0.59
		c-0.45,0.12-0.97,0.29-1.14,0.73c-0.26,0.69,0.54,1.28,1.21,1.59c1.45,0.67,3.09,1.36,4.59,0.8c0.91-0.33,1.59-1.07,2.27-1.77
		c1.45-1.5,2.99-2.91,4.62-4.21c1.29-1.04,2.68-2.04,4.3-2.38c-1.34,1.71-2.59,3.48-3.77,5.31c1.5,0.09,2.41-2.12,3.9-1.95
		c0.65,0.07,1.14,0.6,1.57,1.1c1.18,1.34,2.35,2.68,3.52,4.02c2.53-0.63,4.22-3.57,3.48-6.07c1.64,0.12,3.27,0.24,4.91,0.36
		c0.23-0.54,0.42-1.08,0.59-1.64c1.22,0.91,2.63,1.5,3.9,0.83c0.38-0.2,0.7-0.5,1.09-0.69c1.65-0.83,3.46,0.62,4.9,1.78
		c3.33,2.69,7.51,4.32,11.78,4.6c0.36,0.02,0.74,0.04,1.1,0.08C746.63,444.15,746.7,447.84,746.7,451.54z"/>
	<path class="st6" d="M697.52,431.01c-0.53-0.07-0.77-0.69-0.87-1.22c-0.53-2.75-0.26-5.64,0.71-8.26c0.31-0.84,1.07-3.22,1.97-3.59
		c0.99-0.41,2.53,1.38,3.09,2.07C700,423.49,697.98,426.65,697.52,431.01z"/>
	<g>
		<path class="st10" d="M450,44.9c224.58,0,406.64,182.06,406.64,406.64S674.58,858.18,450,858.18S43.36,676.12,43.36,451.54
			S225.42,44.9,450,44.9 M450,38.05c-55.82,0-109.97,10.93-160.95,32.5c-49.24,20.83-93.46,50.64-131.43,88.61
			S89.83,241.35,69,290.59c-21.56,50.98-32.5,105.13-32.5,160.95S47.44,561.51,69,612.5c20.83,49.24,50.64,93.46,88.61,131.43
			s82.19,67.79,131.43,88.61c50.98,21.56,105.13,32.5,160.95,32.5s109.97-10.93,160.95-32.5c49.24-20.83,93.46-50.64,131.43-88.61
			S810.17,661.73,831,612.5c21.56-50.98,32.5-105.13,32.5-160.95S852.56,341.57,831,290.59c-20.83-49.24-50.64-93.46-88.61-131.43
			s-82.19-67.79-131.43-88.61C559.97,48.98,505.82,38.05,450,38.05L450,38.05z"/>
	</g>
	<g>
		<path class="st2" d="M176.28,689.09l-1,0.9c-3.19,2.87-4.43,5.61-1.18,9.23c1.88,2.1,5.01,2.9,7.87,0.33
			c3.1-2.78,2.83-5.38,0.34-11.31c-3.38-7.98-3.38-13.05,2.29-18.14c6.62-5.94,13.64-4.93,19.45,1.55
			c5.47,6.1,6.83,12.88,0.31,18.73l-0.95,0.86l-5.9-6.57c3.19-2.86,4.06-5.63,1.71-8.25c-2.78-3.1-5.46-2.15-7.46-0.36
			c-2.1,1.88-2.83,3.65-1.46,7.67l2.46,7.34c2.38,7.15,0.96,10.84-3.19,14.56c-7.19,6.46-14.36,4.98-21.03-2.45
			c-6.97-7.76-6.09-14.06,0.2-19.7l1.38-1.24L176.28,689.09z"/>
		<path class="st2" d="M238.02,706.11l-5.09,5.58l-7.38-6.72l-25.69,28.2l-6.81-6.21l25.69-28.2l-7.38-6.72l5.09-5.58L238.02,706.11
			z"/>
		<path class="st2" d="M246.86,712.89l9.11,6.84l-17.79,43.8l-7.67-5.77l4.12-8.99l-9.72-7.31l-7.49,6.46l-7.67-5.77L246.86,712.89z
			 M230.72,736.39l7.16,5.38l8.81-19.08l-0.1-0.08L230.72,736.39z"/>
		<path class="st2" d="M289.82,741.59l-3.95,6.44l-8.51-5.22l-19.93,32.52l-7.86-4.82L269.5,738l-8.51-5.22l3.95-6.44L289.82,741.59
			z"/>
		<path class="st2" d="M317.75,755.33l-3.3,6.79L299.77,755l-4.69,9.67l13.82,6.71l-3.3,6.79l-13.82-6.71l-5.36,11.05l15.26,7.4
			l-3.3,6.79l-23.55-11.43l19.95-41.11L317.75,755.33z"/>
		<path class="st2" d="M355.72,767.96c13.25,3.94,12.1,13.88,8.14,27.19c-3.96,13.31-8.43,22.26-21.68,18.32
			c-13.25-3.94-12.1-13.88-8.13-27.19C338,772.97,342.47,764.01,355.72,767.96z M344.11,806.97c5.21,1.55,7.41-2.67,10.91-14.45
			c3.49-11.72,3.98-16.51-1.24-18.06c-5.21-1.55-7.42,2.73-10.91,14.45C339.37,800.68,338.9,805.42,344.11,806.97z"/>
		<path class="st2" d="M377.02,774.64l25.1,4.71l-1.39,7.42l-16.04-3.01l-1.98,10.57l15.1,2.83l-1.39,7.42l-15.1-2.83l-3.66,19.5
			l-9.06-1.7L377.02,774.64z"/>
		<path class="st2" d="M445.66,797.93c0.19-6.65-1.08-9.57-5.24-9.69c-4.67-0.13-5.89,4.51-6.25,17.43
			c-0.39,13.82,1.46,16.37,5.43,16.48c3.33,0.09,5.81-1.57,6.08-11.42l9.21,0.26c-0.27,9.85-2.94,18.29-15.04,17.96
			c-13.82-0.38-15.27-10.29-14.89-24.17c0.39-13.88,2.39-23.69,16.21-23.3c13.18,0.37,13.87,10.06,13.68,16.71L445.66,797.93z"/>
		<path class="st2" d="M469.78,781.96l11.36-0.86l15.51,44.65l-9.57,0.73l-2.84-9.48l-12.12,0.92l-1.38,9.79l-9.57,0.73
			L469.78,781.96z M473.15,810.27l8.93-0.68l-5.96-20.15l-0.13,0.01L473.15,810.27z"/>
		<path class="st2" d="M505.85,824.26l-8.11-44.97l9.07-1.63l6.77,37.54l16.06-2.9l1.34,7.43L505.85,824.26z"/>
		<path class="st2" d="M541.35,817.07l-11.59-44.2l8.91-2.34l11.59,44.2L541.35,817.07z"/>
		<path class="st2" d="M547.76,768.04l24.12-8.38l2.48,7.13l-15.42,5.36l3.53,10.16l14.51-5.04l2.48,7.13l-14.51,5.04l6.51,18.74
			l-8.71,3.03L547.76,768.04z"/>
		<path class="st2" d="M589.8,750.63c12.52-5.86,18.26,2.33,24.15,14.9c5.89,12.58,8.51,22.23-4.01,28.1
			c-12.52,5.86-18.26-2.33-24.15-14.9C579.9,766.15,577.28,756.49,589.8,750.63z M607.07,787.49c4.93-2.31,3.76-6.92-1.46-18.04
			c-5.18-11.07-8-14.98-12.93-12.67c-4.93,2.31-3.73,6.98,1.46,18.04C599.35,785.95,602.14,789.8,607.07,787.49z"/>
		<path class="st2" d="M609.93,741.73l14.52-8.88c6.44-3.94,12.44-2.96,16.52,3.7c3.17,5.19,3.23,9.95-0.62,13.58l0.07,0.11
			c5.78-2.56,8.41-0.11,13.56,8.06c2.56,4.06,4.08,6.06,6.02,5.92l0.2,0.33l-8.52,5.21c-1.43-0.62-2.5-2-3.49-3.49l-4.79-7.35
			c-1.98-2.99-4.48-4.01-7.65-2.08l-4.2,2.57l10.08,16.49l-7.86,4.81L609.93,741.73z M628.21,753.96l3.28-2
			c3.77-2.3,4.89-5.24,2.32-9.45c-2.2-3.6-5.22-4.24-8.77-2.07l-3.71,2.27L628.21,753.96z"/>
		<path class="st2" d="M649.29,715.82l28,17.88l0.1-0.08l-19.21-24.71l6.67-5.18l28.04,36.08l-8.29,6.44l-28.53-18.36l-0.1,0.08
			l19.64,25.27l-6.67,5.18l-28.04-36.08L649.29,715.82z"/>
		<path class="st2" d="M702.49,731.06l-31.05-33.52l6.76-6.26l31.05,33.52L702.49,731.06z"/>
		<path class="st2" d="M690.9,678.53l7.67-8.42l41.93,21.83l-6.47,7.1l-8.57-4.95l-8.19,8.99l5.72,8.07l-6.47,7.1L690.9,678.53z
			 M712.77,696.81l6.04-6.63l-18.16-10.57l-0.09,0.09L712.77,696.81z"/>
	</g>
	<g>
		<g>
			<path d="M450,16.1c240.49,0,435.44,194.95,435.44,435.44S690.49,886.98,450,886.98S14.56,692.03,14.56,451.54
				S209.51,16.1,450,16.1 M450,11.1c-59.46,0-117.14,11.65-171.44,34.61c-52.45,22.18-99.55,53.94-140,94.39s-72.2,87.55-94.39,140
				C21.21,334.41,9.56,392.09,9.56,451.54s11.65,117.14,34.61,171.44c22.18,52.45,53.94,99.55,94.39,140s87.55,72.2,140,94.39
				c54.3,22.97,111.98,34.61,171.44,34.61s117.14-11.65,171.44-34.61c52.45-22.18,99.55-53.94,140-94.39s72.2-87.55,94.39-140
				c22.97-54.3,34.61-111.98,34.61-171.44s-11.65-117.14-34.61-171.44c-22.18-52.45-53.94-99.55-94.39-140s-87.55-72.2-140-94.39
				C567.14,22.75,509.46,11.1,450,11.1L450,11.1z"/>
		</g>
	</g>
	<g>
		<polygon class="st11" points="145.42,644.1 126.19,658.07 133.53,635.46 114.3,621.49 138.07,621.49 145.42,598.88 152.77,621.49 
			176.54,621.49 157.31,635.46 164.65,658.07 		"/>
		<path d="M145.42,602.12l6.62,20.37h21.42l-17.33,12.59l6.62,20.37l-17.33-12.59l-17.33,12.59l6.62-20.37l-17.33-12.59h21.42
			L145.42,602.12 M145.42,595.65l-1.9,5.85l-6.17,18.99h-19.97h-6.16l4.98,3.62l16.15,11.74l-6.17,18.99l-1.9,5.85l4.98-3.62
			l16.15-11.74l16.15,11.74l4.98,3.62l-1.9-5.85l-6.17-18.99l16.15-11.74l4.98-3.62h-6.16h-19.97l-6.17-18.99L145.42,595.65
			L145.42,595.65z"/>
	</g>
	<g>
		<polygon class="st11" points="750.68,649.02 731.45,662.99 738.79,640.38 719.56,626.41 743.33,626.41 750.68,603.8 
			758.02,626.41 781.79,626.41 762.56,640.38 769.91,662.99 		"/>
		<path d="M750.68,607.04l6.62,20.37h21.42L761.39,640l6.62,20.37l-17.33-12.59l-17.33,12.59l6.62-20.37l-17.33-12.59h21.42
			L750.68,607.04 M750.68,600.57l-1.9,5.85l-6.17,18.99h-19.97h-6.16l4.98,3.62l16.15,11.74l-6.17,18.99l-1.9,5.85l4.98-3.62
			l16.15-11.74l16.15,11.74l4.98,3.62l-1.9-5.85l-6.17-18.99l16.15-11.74l4.98-3.62h-6.16h-19.97l-6.17-18.99L750.68,600.57
			L750.68,600.57z"/>
	</g>
</g>
<g id="Layer_3">
	<path d="M744.37,488.88c-0.07,0.56-0.14,1.13-0.22,1.69c-0.08,0.66-0.17,1.31-0.26,1.96H156.11c-0.17-1.21-0.33-2.43-0.48-3.65
		H744.37z"/>
	<path d="M739.99,514.56c-0.26,1.22-0.53,2.44-0.81,3.65H160.83c-0.29-1.21-0.56-2.43-0.82-3.65H739.99z"/>
	<path class="st12" d="M723.18,526.69c6,0,10.62-0.89,14.49-2.25c-0.1,0.42-0.2,0.83-0.31,1.25c-0.58,2.26-1.19,4.51-1.83,6.75
		c-0.31,1.1-0.62,2.2-0.95,3.3c-0.11,0.38-0.23,0.75-0.34,1.12c-0.28,0.97-0.58,1.94-0.88,2.91c-0.33,1.05-0.66,2.1-1,3.15
		c-0.25,0.77-0.5,1.54-0.76,2.31c-0.26,0.78-0.52,1.56-0.79,2.34c-0.03,0.08-0.06,0.17-0.09,0.25c-0.26,0.78-0.53,1.54-0.8,2.31
		c-0.28,0.8-0.56,1.59-0.85,2.38c-0.38,1.08-0.78,2.14-1.18,3.21c-0.02,0.05-0.03,0.1-0.05,0.14c-0.27,0.71-0.54,1.42-0.81,2.12
		c-0.24,0.64-0.49,1.28-0.74,1.91c-0.56,1.42-1.13,2.84-1.71,4.25c-0.01,0.03-0.02,0.05-0.03,0.08c-0.36,0.88-0.72,1.76-1.1,2.64
		c-0.05,0.14-0.11,0.27-0.17,0.41c-0.32,0.76-0.65,1.52-0.98,2.28c-0.28,0.66-0.57,1.32-0.87,1.98c-0.11,0.25-0.22,0.5-0.33,0.74
		c-0.39,0.89-0.79,1.78-1.2,2.67c-0.09,0.18-0.17,0.36-0.25,0.54c-0.32,0.7-0.65,1.4-0.98,2.1c-0.36,0.78-0.73,1.55-1.11,2.33
		c-0.44,0.93-0.89,1.86-1.35,2.78c-0.67,1.37-1.36,2.73-2.06,4.09c-0.42,0.84-0.86,1.67-1.3,2.5c-0.01,0.01-0.01,0.03-0.02,0.04
		c-0.55,1.05-1.11,2.1-1.67,3.14c-0.47,0.86-0.93,1.72-1.41,2.57c-0.56,1.02-1.13,2.04-1.71,3.05c-0.49,0.87-0.99,1.72-1.49,2.58
		c-0.39,0.69-0.79,1.37-1.2,2.05c-0.88,1.49-1.78,2.97-2.69,4.44c-0.9,1.47-1.82,2.92-2.74,4.37c-0.01,0.01-0.02,0.02-0.02,0.03
		c-0.84,1.31-1.69,2.61-2.55,3.9c-0.17,0.26-0.35,0.52-0.51,0.77c-0.89,1.33-1.79,2.65-2.7,3.96c-0.98,1.42-1.98,2.83-2.99,4.24
		c-0.98,1.37-1.98,2.73-2.98,4.09c-0.03,0.03-0.05,0.06-0.07,0.09c-1.01,1.36-2.04,2.7-3.07,4.04c-0.03,0.05-0.07,0.09-0.1,0.13
		c-1.01,1.31-2.03,2.61-3.06,3.9c-0.04,0.04-0.07,0.08-0.1,0.12c-0.6,0.76-1.21,1.5-1.82,2.25c-0.92,1.13-1.84,2.25-2.78,3.36
		c-0.62,0.74-1.25,1.48-1.88,2.21c-0.74,0.87-1.49,1.73-2.25,2.59c-0.67,0.77-1.35,1.53-2.03,2.29c-1.25,1.4-2.52,2.79-3.8,4.16
		c-0.68,0.74-1.36,1.46-2.06,2.19c-0.54,0.57-1.09,1.15-1.65,1.72c-0.71,0.74-1.43,1.48-2.15,2.21c-0.79,0.81-1.59,1.61-2.4,2.41
		c-0.01,0.01-0.01,0.01-0.02,0.02c-1.09,1.09-2.2,2.17-3.31,3.23c-0.08,0.08-0.16,0.16-0.24,0.23c-1,0.97-2.01,1.92-3.03,2.86
		c-0.09,0.09-0.18,0.18-0.27,0.26c-0.66,0.62-1.34,1.24-2.01,1.85c-0.47,0.44-0.94,0.87-1.42,1.29c-0.75,0.68-1.5,1.35-2.25,2.01
		c-0.86,0.76-1.72,1.52-2.59,2.26c-0.86,0.75-1.73,1.49-2.61,2.23c-0.87,0.74-1.75,1.48-2.64,2.2c-3.54,2.92-7.14,5.75-10.81,8.5
		c-0.82,0.62-1.65,1.23-2.48,1.84c-0.09,0.07-0.19,0.14-0.28,0.21c-1.16,0.84-2.32,1.68-3.49,2.5c-0.04,0.04-0.08,0.07-0.13,0.1
		c-1.25,0.88-2.51,1.76-3.78,2.63h-72.87V522.17c2.22-1.16,4.23-2.44,6.22-3.71c0.13-0.08,0.26-0.17,0.39-0.25
		c2.03-1.3,4.04-2.56,6.26-3.65c4.29-2.14,9.39-3.67,16.98-3.67c7.59,0,12.69,1.53,16.99,3.67c2.22,1.09,4.23,2.35,6.26,3.65
		c0.13,0.08,0.26,0.17,0.39,0.25c6.34,4.04,12.9,8.23,25.9,8.23c12.99,0,19.55-4.19,25.89-8.23c0.13-0.08,0.26-0.17,0.39-0.25
		c2.04-1.29,4.04-2.55,6.26-3.65c4.3-2.14,9.39-3.67,16.99-3.67c7.59,0,12.69,1.53,16.99,3.67c2.22,1.09,4.23,2.35,6.26,3.65
		c0.13,0.08,0.26,0.17,0.39,0.25C703.62,522.5,710.18,526.69,723.18,526.69z"/>
	<path class="st13" d="M739.18,518.21c0.28-1.21,0.55-2.43,0.81-3.65c0.71-3.26,1.36-6.55,1.96-9.85l0.36-2.07
		c-4.76,2.41-10.54,4.24-19.13,4.24c-13,0-19.56-4.18-25.9-8.23c-3.74-2.39-7.36-4.7-12.32-6.12c-3.12-0.9-6.78-1.45-11.32-1.45
		c-4.54,0-8.2,0.55-11.31,1.45c-4.96,1.42-8.58,3.73-12.33,6.12c-6.34,4.05-12.9,8.23-25.89,8.23c-13,0-19.56-4.18-25.9-8.23
		c-3.74-2.39-7.36-4.7-12.32-6.12c-0.51-0.15-1.04-0.29-1.59-0.42c-2.76-0.65-5.93-1.03-9.73-1.03c-2.36,0-4.49,0.15-6.41,0.42
		c-1.79,0.25-3.41,0.6-4.91,1.03c-4.95,1.43-8.57,3.73-12.31,6.12c-1.99,1.27-4,2.55-6.22,3.71v12.2v2.81
		c1.35-0.79,2.65-1.62,3.96-2.45c0.19-0.12,0.37-0.24,0.56-0.36c1.03-0.66,2.07-1.31,3.15-1.95c0.39-0.23,0.78-0.46,1.19-0.68
		c0.31-0.18,0.63-0.35,0.95-0.52c0.58-0.32,1.18-0.62,1.79-0.91c0.32-0.15,0.64-0.3,0.97-0.45c0.62-0.28,1.27-0.55,1.93-0.79
		c0.22-0.09,0.45-0.17,0.68-0.25c2.17-0.78,4.58-1.41,7.34-1.81c0.28-0.05,0.56-0.08,0.84-0.12c0.28-0.04,0.56-0.07,0.85-0.1
		c0.33-0.03,0.66-0.07,0.99-0.09c1.46-0.13,3-0.2,4.65-0.2c6.1,0,10.78,0.92,14.68,2.32c0.23,0.08,0.46,0.16,0.68,0.25
		c0.67,0.25,1.31,0.51,1.93,0.79c0.33,0.15,0.65,0.3,0.97,0.45c0.39,0.18,0.76,0.37,1.13,0.57c0.37,0.18,0.74,0.37,1.1,0.58
		c0.03,0.01,0.06,0.02,0.09,0.05c0.36,0.19,0.72,0.4,1.08,0.61c0.08,0.03,0.15,0.08,0.22,0.13c0.38,0.21,0.75,0.43,1.11,0.66
		c0.8,0.48,1.58,0.97,2.35,1.46c0.19,0.12,0.37,0.24,0.56,0.36c0.45,0.28,0.9,0.57,1.35,0.85c0.45,0.28,0.9,0.56,1.35,0.84
		c0.5,0.31,1.01,0.61,1.53,0.91c0.38,0.22,0.77,0.43,1.16,0.65c0.03,0.01,0.05,0.03,0.08,0.04c0.57,0.31,1.15,0.6,1.75,0.89
		c0.37,0.17,0.74,0.35,1.13,0.51c0.38,0.17,0.77,0.33,1.17,0.48c1.13,0.45,2.33,0.84,3.63,1.18c0.33,0.09,0.68,0.17,1.02,0.25
		c1.2,0.27,2.47,0.49,3.84,0.65c0.39,0.05,0.78,0.09,1.18,0.12c0.53,0.06,1.07,0.09,1.62,0.13c0.37,0.01,0.74,0.03,1.13,0.04
		c0.55,0.02,1.12,0.03,1.7,0.03c0.58,0,1.15-0.01,1.7-0.03c0.39-0.01,0.76-0.03,1.13-0.04c0.55-0.04,1.09-0.07,1.62-0.13
		c0.4-0.03,0.79-0.07,1.18-0.12c1.37-0.16,2.64-0.38,3.84-0.65c0.34-0.08,0.69-0.16,1.02-0.25c0.7-0.18,1.38-0.39,2.04-0.61
		c0.22-0.07,0.45-0.15,0.67-0.23c0.02,0,0.04-0.01,0.06-0.02c0.22-0.07,0.44-0.16,0.65-0.24c0.02-0.01,0.05-0.01,0.07-0.03
		c0.45-0.17,0.88-0.34,1.3-0.53c0.44-0.19,0.87-0.38,1.29-0.59c0.54-0.26,1.07-0.53,1.59-0.81c0.03-0.01,0.05-0.03,0.08-0.04
		c0.39-0.22,0.78-0.43,1.16-0.65c0.52-0.3,1.03-0.6,1.53-0.91c0.46-0.28,0.9-0.56,1.35-0.84c0.45-0.28,0.9-0.57,1.35-0.85l0.57-0.36
		c0.39-0.25,0.77-0.49,1.16-0.73c0.39-0.25,0.79-0.49,1.19-0.73c0.36-0.23,0.74-0.45,1.11-0.66c0.07-0.05,0.14-0.1,0.22-0.13
		c0.37-0.22,0.74-0.43,1.11-0.63c0.42-0.24,0.85-0.46,1.28-0.68c0.33-0.18,0.66-0.34,1.01-0.5c0.32-0.15,0.64-0.3,0.97-0.45
		c0.62-0.28,1.26-0.54,1.93-0.79c0.22-0.09,0.45-0.17,0.68-0.25c2.13-0.77,4.5-1.39,7.21-1.79c0.32-0.05,0.64-0.1,0.97-0.14
		c1.97-0.25,4.13-0.39,6.49-0.39c6.1,0,10.78,0.92,14.68,2.32c0.23,0.08,0.46,0.16,0.68,0.25c0.66,0.24,1.3,0.51,1.93,0.79
		c0.33,0.15,0.65,0.3,0.97,0.45c0.61,0.29,1.2,0.59,1.79,0.91c0.32,0.17,0.64,0.34,0.95,0.52c0.41,0.22,0.8,0.45,1.19,0.68
		c1.08,0.64,2.12,1.29,3.15,1.95c0.19,0.12,0.37,0.24,0.56,0.36c0.45,0.28,0.9,0.57,1.35,0.85c0.45,0.28,0.89,0.56,1.35,0.84
		c0.5,0.31,1.01,0.61,1.53,0.91c0.38,0.22,0.77,0.43,1.16,0.65c0.03,0.01,0.05,0.03,0.08,0.04c0.52,0.28,1.05,0.55,1.59,0.81
		c0.42,0.21,0.85,0.4,1.29,0.59c0.38,0.17,0.77,0.33,1.17,0.48c1.14,0.45,2.34,0.84,3.63,1.18c0.33,0.09,0.67,0.17,1.02,0.25
		c1.2,0.27,2.47,0.49,3.84,0.65c0.36,0.05,0.74,0.09,1.12,0.12c0.54,0.05,1.1,0.09,1.68,0.13c0.37,0.01,0.75,0.03,1.13,0.04
		c0.55,0.02,1.12,0.03,1.7,0.03c0.56,0,1.11-0.01,1.64-0.03c0.28,0,0.56-0.01,0.83-0.03c0.4-0.02,0.79-0.04,1.17-0.07
		c0.17-0.01,0.34-0.02,0.5-0.04c0.32-0.02,0.64-0.05,0.96-0.09c0.52-0.05,1.03-0.12,1.53-0.19c1.18-0.17,2.28-0.39,3.33-0.64
		c0.27-0.06,0.55-0.13,0.81-0.21c0.9-0.24,1.76-0.51,2.58-0.81c0.27-0.09,0.54-0.2,0.81-0.31c0.26-0.1,0.52-0.21,0.78-0.32
		c0.24-0.09,0.47-0.2,0.7-0.3c0.02-0.01,0.05-0.02,0.07-0.03l0.01-0.01L739.18,518.21z"/>
	<path class="st14" d="M745.03,483.15c-0.01,0.17-0.03,0.35-0.05,0.52c-0.12,1.11-0.25,2.21-0.38,3.31
		c-0.07,0.63-0.15,1.27-0.23,1.9c-0.07,0.56-0.14,1.13-0.22,1.69c-0.08,0.66-0.17,1.31-0.26,1.96c-0.06,0.45-0.12,0.9-0.19,1.34
		c-0.01,0.09-0.02,0.18-0.04,0.27c-0.15,1.08-0.31,2.16-0.48,3.24c-4.98,2.93-10.56,5.3-20,5.3c-11.77,0-17.54-3.68-23.64-7.57
		c-1.37-0.87-2.74-1.75-4.19-2.58c-2.37-1.39-4.93-2.66-7.95-3.65c-3.72-1.22-8.14-2-13.76-2c-5.63,0-10.05,0.78-13.76,2
		c-3.03,0.99-5.58,2.27-7.95,3.65c-1.45,0.83-2.82,1.71-4.19,2.58c-6.1,3.89-11.86,7.57-23.63,7.57c-11.77,0-17.54-3.68-23.64-7.57
		c-1.36-0.87-2.73-1.75-4.18-2.58c-0.51-0.31-1.04-0.6-1.58-0.88c-1.93-1.05-4.01-2-6.38-2.77c-3.72-1.22-8.14-2-13.76-2
		c-5.61,0-10.03,0.78-13.75,2c-0.98,0.32-1.9,0.67-2.79,1.05c-1.86,0.77-3.56,1.66-5.16,2.6c-1.45,0.83-2.82,1.71-4.19,2.58
		c-1.31,0.84-2.61,1.67-3.96,2.45v-13.2c2.22-1.16,4.23-2.44,6.22-3.71c1.29-0.83,2.57-1.64,3.89-2.41
		c4.92-2.87,10.46-5.16,19.74-5.16c11.77,0,17.54,3.68,23.64,7.57c2.7,1.73,5.44,3.48,8.71,4.91c4.22,1.87,9.31,3.21,16.32,3.31
		c0.28,0.01,0.58,0.01,0.87,0.01c3.86,0,7.15-0.37,10.04-0.99c6.83-1.48,11.4-4.39,15.85-7.24c3.64-2.32,7.16-4.56,11.9-5.99
		c3.21-0.98,6.99-1.58,11.74-1.58c4.12,0,7.51,0.45,10.43,1.2c5.13,1.33,8.83,3.58,12.57,5.96c0.21,0.14,0.43,0.27,0.64,0.41
		c6.34,4.05,12.9,8.23,25.9,8.23C733.47,488.88,739.73,486.26,745.03,483.15z"/>
	<path class="st15" d="M746.37,468.88c-0.06,0.1-0.13,0.2-0.19,0.3c0,0.13-0.01,0.25-0.02,0.37c-0.04,0.65-0.08,1.31-0.13,1.96
		c-0.04,0.7-0.09,1.41-0.14,2.11c0,0,0,0-0.01,0.01c0,0.14-0.01,0.26-0.03,0.4c-0.01,0.23-0.02,0.47-0.05,0.7
		c-0.06,0.9-0.14,1.8-0.22,2.7c0,0.09-0.01,0.17-0.02,0.25c0,0.04,0,0.08-0.01,0.12c0,0.04,0,0.08-0.01,0.13
		c0,0.07-0.01,0.13-0.02,0.2c-0.06,0.76-0.13,1.52-0.21,2.28c-0.09,0.91-0.18,1.81-0.27,2.72c0,0,0,0.01-0.01,0.02
		c-5.3,3.11-11.56,5.73-21.85,5.73c-13,0-19.56-4.18-25.9-8.23c-0.21-0.14-0.43-0.27-0.64-0.41c-3.74-2.38-7.44-4.63-12.57-5.96
		c-2.92-0.75-6.31-1.2-10.43-1.2c-4.75,0-8.53,0.6-11.74,1.58c-4.74,1.43-8.26,3.67-11.9,5.99c-4.45,2.85-9.02,5.76-15.85,7.24
		c-2.89,0.62-6.18,0.99-10.04,0.99c-0.29,0-0.59,0-0.87-0.01c-7.01-0.1-12.1-1.44-16.32-3.31c-3.27-1.43-6.01-3.18-8.71-4.91
		c-6.1-3.89-11.87-7.57-23.64-7.57c-9.28,0-14.82,2.29-19.74,5.16c-1.32,0.77-2.6,1.58-3.89,2.41c-1.99,1.27-4,2.55-6.22,3.71v-17.4
		H746.3c-0.03,0.64-0.06,1.28-0.1,1.92H746.37z"/>
	<path class="st16" d="M743.18,497.38c-0.04,0.26-0.08,0.52-0.13,0.77c-0.03,0.2-0.06,0.41-0.1,0.61c-0.1,0.65-0.2,1.3-0.31,1.94
		c-0.1,0.64-0.21,1.28-0.32,1.93l-0.01,0.01c-4.76,2.41-10.54,4.24-19.13,4.24c-13,0-19.56-4.18-25.9-8.23
		c-3.74-2.39-7.36-4.7-12.32-6.12c-3.12-0.9-6.78-1.45-11.32-1.45c-4.54,0-8.2,0.55-11.31,1.45c-4.96,1.42-8.58,3.73-12.33,6.12
		c-6.34,4.05-12.9,8.23-25.89,8.23c-13,0-19.56-4.18-25.9-8.23c-3.74-2.39-7.36-4.7-12.32-6.12c-0.51-0.15-1.04-0.29-1.59-0.42
		c-2.76-0.65-5.93-1.03-9.73-1.03c-2.36,0-4.49,0.15-6.41,0.42c-1.79,0.25-3.41,0.6-4.91,1.03c-4.95,1.43-8.57,3.73-12.31,6.12
		c-1.99,1.27-4,2.55-6.22,3.71v-4.8c1.35-0.78,2.65-1.61,3.96-2.45c1.37-0.87,2.74-1.75,4.19-2.58c1.6-0.94,3.3-1.83,5.16-2.6
		c0.89-0.38,1.81-0.73,2.79-1.05c3.72-1.22,8.14-2,13.75-2c5.62,0,10.04,0.78,13.76,2c2.37,0.77,4.45,1.72,6.38,2.77
		c0.54,0.28,1.07,0.57,1.58,0.88c1.45,0.83,2.82,1.71,4.18,2.58c6.1,3.89,11.87,7.57,23.64,7.57c11.77,0,17.53-3.68,23.63-7.57
		c1.37-0.87,2.74-1.75,4.19-2.58c2.37-1.38,4.92-2.66,7.95-3.65c3.71-1.22,8.13-2,13.76-2c5.62,0,10.04,0.78,13.76,2
		c3.02,0.99,5.58,2.26,7.95,3.65c1.45,0.83,2.82,1.71,4.19,2.58c6.1,3.89,11.87,7.57,23.64,7.57
		C732.62,502.68,738.2,500.31,743.18,497.38z"/>
	<path class="st16" d="M738.82,519.45c0.02-0.01,0.05-0.02,0.07-0.03c-0.21,0.92-0.43,1.85-0.65,2.76
		c-0.13,0.51-0.25,1.01-0.38,1.51l-0.18,0.75h-0.01c-3.87,1.36-8.49,2.25-14.49,2.25c-13,0-19.56-4.19-25.9-8.23
		c-0.13-0.08-0.26-0.17-0.39-0.25c-2.03-1.3-4.04-2.56-6.26-3.65c-4.3-2.14-9.4-3.67-16.99-3.67c-7.6,0-12.69,1.53-16.99,3.67
		c-2.22,1.1-4.22,2.36-6.26,3.65c-0.13,0.08-0.26,0.17-0.39,0.25c-6.34,4.04-12.9,8.23-25.89,8.23c-13,0-19.56-4.19-25.9-8.23
		c-0.13-0.08-0.26-0.17-0.39-0.25c-2.03-1.3-4.04-2.56-6.26-3.65c-4.3-2.14-9.4-3.67-16.99-3.67c-7.59,0-12.69,1.53-16.98,3.67
		c-2.22,1.09-4.23,2.35-6.26,3.65c-0.13,0.08-0.26,0.17-0.39,0.25c-1.99,1.27-4,2.55-6.22,3.71v-4.8c1.35-0.79,2.65-1.62,3.96-2.45
		c0.19-0.12,0.37-0.24,0.56-0.36c1.03-0.66,2.07-1.31,3.15-1.95c0.39-0.23,0.78-0.46,1.19-0.68c0.31-0.18,0.63-0.35,0.95-0.52
		c0.58-0.32,1.18-0.62,1.79-0.91c0.32-0.15,0.64-0.3,0.97-0.45c0.62-0.28,1.27-0.55,1.93-0.79c0.22-0.09,0.45-0.17,0.68-0.25
		c2.17-0.78,4.58-1.41,7.34-1.81c0.28-0.05,0.56-0.08,0.84-0.12c0.28-0.04,0.56-0.07,0.85-0.1c0.33-0.03,0.66-0.07,0.99-0.09
		c1.46-0.13,3-0.2,4.65-0.2c6.1,0,10.78,0.92,14.68,2.32c0.23,0.08,0.46,0.16,0.68,0.25c0.67,0.25,1.31,0.51,1.93,0.79
		c0.33,0.15,0.65,0.3,0.97,0.45c0.39,0.18,0.76,0.37,1.13,0.57c0.37,0.18,0.74,0.37,1.1,0.58c0.03,0.01,0.06,0.02,0.09,0.05
		c0.36,0.19,0.72,0.4,1.08,0.61c0.08,0.03,0.15,0.08,0.22,0.13c0.38,0.21,0.75,0.43,1.11,0.66c0.8,0.48,1.58,0.97,2.35,1.46
		c0.19,0.12,0.37,0.24,0.56,0.36c0.45,0.28,0.9,0.57,1.35,0.85c0.45,0.28,0.9,0.56,1.35,0.84c0.5,0.31,1.01,0.61,1.53,0.91
		c0.38,0.22,0.77,0.43,1.16,0.65c0.03,0.01,0.05,0.03,0.08,0.04c0.57,0.31,1.15,0.6,1.75,0.89c0.37,0.17,0.74,0.35,1.13,0.51
		c0.38,0.17,0.77,0.33,1.17,0.48c1.13,0.45,2.33,0.84,3.63,1.18c0.33,0.09,0.68,0.17,1.02,0.25c1.2,0.27,2.47,0.49,3.84,0.65
		c0.39,0.05,0.78,0.09,1.18,0.12c0.53,0.06,1.07,0.09,1.62,0.13c0.37,0.01,0.74,0.03,1.13,0.04c0.55,0.02,1.12,0.03,1.7,0.03
		c0.58,0,1.15-0.01,1.7-0.03c0.39-0.01,0.76-0.03,1.13-0.04c0.55-0.04,1.09-0.07,1.62-0.13c0.4-0.03,0.79-0.07,1.18-0.12
		c1.37-0.16,2.64-0.38,3.84-0.65c0.34-0.08,0.69-0.16,1.02-0.25c0.7-0.18,1.38-0.39,2.04-0.61c0.22-0.07,0.45-0.15,0.67-0.23
		c0.02,0,0.04-0.01,0.06-0.02c0.22-0.07,0.44-0.16,0.65-0.24c0.02-0.01,0.05-0.01,0.07-0.03c0.45-0.16,0.88-0.34,1.3-0.53
		c0.44-0.18,0.87-0.38,1.29-0.59c0.54-0.26,1.07-0.53,1.59-0.81c0.03-0.01,0.05-0.03,0.08-0.04c0.39-0.22,0.78-0.43,1.16-0.65
		c0.52-0.3,1.03-0.6,1.53-0.91c0.46-0.28,0.9-0.56,1.35-0.84c0.45-0.28,0.9-0.57,1.35-0.85l0.57-0.36c0.39-0.25,0.77-0.49,1.16-0.73
		c0.39-0.25,0.79-0.49,1.19-0.73c0.36-0.23,0.73-0.45,1.11-0.66c0.07-0.05,0.14-0.1,0.22-0.13c0.37-0.22,0.74-0.43,1.11-0.63
		c0.42-0.24,0.85-0.46,1.28-0.68c0.33-0.18,0.66-0.34,1.01-0.5c0.32-0.15,0.64-0.3,0.97-0.45c0.62-0.28,1.26-0.54,1.93-0.79
		c0.22-0.09,0.45-0.17,0.68-0.25c2.13-0.77,4.5-1.39,7.21-1.79c0.32-0.05,0.64-0.1,0.97-0.14c1.97-0.25,4.13-0.39,6.49-0.39
		c6.1,0,10.78,0.92,14.68,2.32c0.23,0.08,0.46,0.16,0.68,0.25c0.66,0.24,1.3,0.51,1.93,0.79c0.33,0.15,0.65,0.3,0.97,0.45
		c0.61,0.29,1.2,0.59,1.79,0.91c0.32,0.17,0.64,0.34,0.95,0.52c0.41,0.22,0.8,0.45,1.19,0.68c1.08,0.64,2.12,1.29,3.15,1.95
		c0.19,0.12,0.37,0.24,0.56,0.36c0.45,0.28,0.9,0.57,1.35,0.85c0.45,0.28,0.89,0.56,1.35,0.84c0.5,0.31,1.01,0.61,1.53,0.91
		c0.38,0.22,0.77,0.43,1.16,0.65c0.03,0.01,0.05,0.03,0.08,0.04c0.52,0.28,1.05,0.55,1.59,0.81c0.42,0.21,0.85,0.41,1.29,0.59
		c0.38,0.17,0.77,0.33,1.17,0.48c1.14,0.45,2.34,0.84,3.63,1.18c0.33,0.09,0.67,0.17,1.02,0.25c1.2,0.27,2.47,0.49,3.84,0.65
		c0.36,0.05,0.74,0.09,1.12,0.12c0.54,0.05,1.1,0.09,1.68,0.13c0.37,0.01,0.75,0.03,1.13,0.04c0.55,0.02,1.12,0.03,1.7,0.03
		c0.56,0,1.11-0.01,1.64-0.03c0.28,0,0.56-0.01,0.83-0.03c0.4-0.02,0.79-0.04,1.17-0.07c0.17-0.01,0.34-0.02,0.5-0.04
		c0.32-0.02,0.64-0.05,0.96-0.09c0.52-0.05,1.03-0.12,1.53-0.19c1.18-0.17,2.28-0.39,3.33-0.64c0.27-0.06,0.55-0.13,0.81-0.21
		c0.9-0.24,1.76-0.51,2.58-0.81c0.27-0.09,0.54-0.2,0.81-0.31c0.26-0.1,0.52-0.21,0.78-0.32
		C738.36,519.66,738.59,519.55,738.82,519.45z"/>
	<g>
		<path class="st17" d="M745.53,477.93L745.53,477.93c0.01,0.07,0,0.13-0.01,0.2c-0.06,0.76-0.13,1.52-0.21,2.28
			c-0.09,0.91-0.18,1.81-0.27,2.72c0,0,0,0.01-0.01,0.02c-5.3,3.11-11.56,5.73-21.85,5.73c-13,0-19.56-4.18-25.9-8.23
			c-0.21-0.14-0.43-0.27-0.64-0.41c-3.74-2.38-7.44-4.63-12.57-5.96c-2.92-0.75-6.31-1.2-10.43-1.2c-4.75,0-8.53,0.6-11.74,1.58
			c-4.74,1.43-8.26,3.67-11.9,5.99c-4.45,2.85-9.02,5.76-15.85,7.24c-2.89,0.62-6.18,0.99-10.04,0.99c-0.29,0-0.59,0-0.87-0.01
			c-7.01-0.1-12.1-1.44-16.32-3.31c-3.27-1.43-6.01-3.18-8.71-4.91c-6.1-3.89-11.87-7.57-23.64-7.57c-9.28,0-14.82,2.29-19.74,5.16
			c-1.32,0.77-2.6,1.58-3.89,2.41c-1.99,1.27-4,2.55-6.22,3.71v-4.8c1.31-0.76,2.57-1.56,3.84-2.37c0.04-0.03,0.08-0.05,0.12-0.08
			c6.34-4.05,12.9-8.23,25.89-8.23c13,0,19.56,4.18,25.9,8.23c4.16,2.65,8.17,5.21,14.03,6.57c2.73,0.63,5.86,1,9.61,1
			c11.77,0,17.53-3.68,23.63-7.57c1.34-0.86,2.69-1.71,4.1-2.53c5.3-3.1,11.54-5.7,21.8-5.7c9.73,0,15.86,2.34,20.98,5.23
			c1.72,0.96,3.33,1.98,4.92,3c1.07,0.68,2.13,1.36,3.21,2.01c5.09,3.06,10.72,5.56,20.43,5.56
			C734.12,484.68,739.87,481.5,745.53,477.93z"/>
	</g>
	<g>
		<path class="st17" d="M723.18,502.68c9.44,0,15.02-2.37,20-5.3c-0.04,0.26-0.08,0.52-0.13,0.77c-0.03,0.2-0.06,0.41-0.1,0.61
			c-0.1,0.65-0.2,1.3-0.31,1.94c-0.1,0.64-0.21,1.28-0.32,1.93l-0.01,0.01c-4.76,2.41-10.54,4.24-19.13,4.24
			c-13,0-19.56-4.18-25.9-8.23c-3.74-2.39-7.36-4.7-12.32-6.12c-3.12-0.9-6.78-1.45-11.32-1.45c-4.54,0-8.2,0.55-11.31,1.45
			c-4.96,1.42-8.58,3.73-12.33,6.12c-6.34,4.05-12.9,8.23-25.89,8.23c-13,0-19.56-4.18-25.9-8.23c-3.74-2.39-7.36-4.7-12.32-6.12
			c-0.51-0.15-1.04-0.29-1.59-0.42c-2.76-0.65-5.93-1.03-9.73-1.03c-2.36,0-4.49,0.15-6.41,0.42c-1.79,0.25-3.41,0.6-4.91,1.03
			c-4.95,1.43-8.57,3.73-12.31,6.12c-1.99,1.27-4,2.55-6.22,3.71v-4.8c1.35-0.78,2.65-1.61,3.96-2.45c1.37-0.87,2.74-1.75,4.19-2.58
			c1.6-0.94,3.3-1.83,5.16-2.6c0.89-0.38,1.81-0.73,2.79-1.05c3.72-1.22,8.14-2,13.75-2c5.62,0,10.04,0.78,13.76,2
			c2.37,0.77,4.45,1.72,6.38,2.77c0.54,0.28,1.07,0.57,1.58,0.88c1.45,0.83,2.82,1.71,4.18,2.58c6.1,3.89,11.87,7.57,23.64,7.57
			c11.77,0,17.53-3.68,23.63-7.57c1.37-0.87,2.74-1.75,4.19-2.58c2.37-1.38,4.92-2.66,7.95-3.65c3.71-1.22,8.13-2,13.76-2
			c5.62,0,10.04,0.78,13.76,2c3.02,0.99,5.58,2.26,7.95,3.65c1.45,0.83,2.82,1.71,4.19,2.58C705.64,499,711.41,502.68,723.18,502.68
			z"/>
	</g>
	<g>
		<path class="st17" d="M738.82,519.45c0.02-0.01,0.05-0.02,0.07-0.03c-0.21,0.92-0.43,1.85-0.65,2.76
			c-0.13,0.51-0.25,1.01-0.38,1.51l-0.18,0.75h-0.01c-3.87,1.36-8.49,2.25-14.49,2.25c-13,0-19.56-4.19-25.9-8.23
			c-0.13-0.08-0.26-0.17-0.39-0.25c-2.03-1.3-4.04-2.56-6.26-3.65c-4.3-2.14-9.4-3.67-16.99-3.67c-7.6,0-12.69,1.53-16.99,3.67
			c-2.22,1.1-4.22,2.36-6.26,3.65c-0.13,0.08-0.26,0.17-0.39,0.25c-6.34,4.04-12.9,8.23-25.89,8.23c-13,0-19.56-4.19-25.9-8.23
			c-0.13-0.08-0.26-0.17-0.39-0.25c-2.03-1.3-4.04-2.56-6.26-3.65c-4.3-2.14-9.4-3.67-16.99-3.67c-7.59,0-12.69,1.53-16.98,3.67
			c-2.22,1.09-4.23,2.35-6.26,3.65c-0.13,0.08-0.26,0.17-0.39,0.25c-1.99,1.27-4,2.55-6.22,3.71v-4.8c1.35-0.79,2.65-1.62,3.96-2.45
			c0.19-0.12,0.37-0.24,0.56-0.36c1.03-0.66,2.07-1.31,3.15-1.95c0.39-0.23,0.78-0.46,1.19-0.68c0.31-0.18,0.63-0.35,0.95-0.52
			c0.58-0.32,1.18-0.62,1.79-0.91c0.32-0.15,0.64-0.3,0.97-0.45c0.62-0.28,1.27-0.55,1.93-0.79c0.22-0.09,0.45-0.17,0.68-0.25
			c2.17-0.78,4.58-1.41,7.34-1.81c0.28-0.05,0.56-0.08,0.84-0.12c0.28-0.04,0.56-0.07,0.85-0.1c0.33-0.03,0.66-0.07,0.99-0.09
			c1.46-0.13,3-0.2,4.65-0.2c6.1,0,10.78,0.92,14.68,2.32c0.23,0.08,0.46,0.16,0.68,0.25c0.67,0.25,1.31,0.51,1.93,0.79
			c0.33,0.15,0.65,0.3,0.97,0.45c0.39,0.18,0.76,0.37,1.13,0.57c0.37,0.18,0.74,0.37,1.1,0.58c0.03,0.01,0.06,0.02,0.09,0.05
			c0.36,0.19,0.72,0.4,1.08,0.61c0.08,0.03,0.15,0.08,0.22,0.13c0.38,0.21,0.75,0.43,1.11,0.66c0.8,0.48,1.58,0.97,2.35,1.46
			c0.19,0.12,0.37,0.24,0.56,0.36c0.45,0.28,0.9,0.57,1.35,0.85c0.45,0.28,0.9,0.56,1.35,0.84c0.5,0.31,1.01,0.61,1.53,0.91
			c0.38,0.22,0.77,0.43,1.16,0.65c0.03,0.01,0.05,0.03,0.08,0.04c0.57,0.31,1.15,0.6,1.75,0.89c0.37,0.17,0.74,0.35,1.13,0.51
			c0.38,0.17,0.77,0.33,1.17,0.48c1.13,0.45,2.33,0.84,3.63,1.18c0.33,0.09,0.68,0.17,1.02,0.25c1.2,0.27,2.47,0.49,3.84,0.65
			c0.39,0.05,0.78,0.09,1.18,0.12c0.53,0.06,1.07,0.09,1.62,0.13c0.37,0.01,0.74,0.03,1.13,0.04c0.55,0.02,1.12,0.03,1.7,0.03
			c0.58,0,1.15-0.01,1.7-0.03c0.39-0.01,0.76-0.03,1.13-0.04c0.55-0.04,1.09-0.07,1.62-0.13c0.4-0.03,0.79-0.07,1.18-0.12
			c1.37-0.16,2.64-0.38,3.84-0.65c0.34-0.08,0.69-0.16,1.02-0.25c0.7-0.18,1.38-0.39,2.04-0.61c0.22-0.07,0.45-0.15,0.67-0.23
			c0.02,0,0.04-0.01,0.06-0.02c0.22-0.07,0.44-0.16,0.65-0.24c0.02-0.01,0.05-0.01,0.07-0.03c0.45-0.16,0.88-0.34,1.3-0.53
			c0.44-0.18,0.87-0.38,1.29-0.59c0.54-0.26,1.07-0.53,1.59-0.81c0.03-0.01,0.05-0.03,0.08-0.04c0.39-0.22,0.78-0.43,1.16-0.65
			c0.52-0.3,1.03-0.6,1.53-0.91c0.46-0.28,0.9-0.56,1.35-0.84c0.45-0.28,0.9-0.57,1.35-0.85l0.57-0.36
			c0.39-0.25,0.77-0.49,1.16-0.73c0.39-0.25,0.79-0.49,1.19-0.73c0.36-0.23,0.73-0.45,1.11-0.66c0.07-0.05,0.14-0.1,0.22-0.13
			c0.37-0.22,0.74-0.43,1.11-0.63c0.42-0.24,0.85-0.46,1.28-0.68c0.33-0.18,0.66-0.34,1.01-0.5c0.32-0.15,0.64-0.3,0.97-0.45
			c0.62-0.28,1.26-0.54,1.93-0.79c0.22-0.09,0.45-0.17,0.68-0.25c2.13-0.77,4.5-1.39,7.21-1.79c0.32-0.05,0.64-0.1,0.97-0.14
			c1.97-0.25,4.13-0.39,6.49-0.39c6.1,0,10.78,0.92,14.68,2.32c0.23,0.08,0.46,0.16,0.68,0.25c0.66,0.24,1.3,0.51,1.93,0.79
			c0.33,0.15,0.65,0.3,0.97,0.45c0.61,0.29,1.2,0.59,1.79,0.91c0.32,0.17,0.64,0.34,0.95,0.52c0.41,0.22,0.8,0.45,1.19,0.68
			c1.08,0.64,2.12,1.29,3.15,1.95c0.19,0.12,0.37,0.24,0.56,0.36c0.45,0.28,0.9,0.57,1.35,0.85c0.45,0.28,0.89,0.56,1.35,0.84
			c0.5,0.31,1.01,0.61,1.53,0.91c0.38,0.22,0.77,0.43,1.16,0.65c0.03,0.01,0.05,0.03,0.08,0.04c0.52,0.28,1.05,0.55,1.59,0.81
			c0.42,0.21,0.85,0.41,1.29,0.59c0.38,0.17,0.77,0.33,1.17,0.48c1.14,0.45,2.34,0.84,3.63,1.18c0.33,0.09,0.67,0.17,1.02,0.25
			c1.2,0.27,2.47,0.49,3.84,0.65c0.36,0.05,0.74,0.09,1.12,0.12c0.54,0.05,1.1,0.09,1.68,0.13c0.37,0.01,0.75,0.03,1.13,0.04
			c0.55,0.02,1.12,0.03,1.7,0.03c0.56,0,1.11-0.01,1.64-0.03c0.28,0,0.56-0.01,0.83-0.03c0.4-0.02,0.79-0.04,1.17-0.07
			c0.17-0.01,0.34-0.02,0.5-0.04c0.32-0.02,0.64-0.05,0.96-0.09c0.52-0.05,1.03-0.12,1.53-0.19c1.18-0.17,2.28-0.39,3.33-0.64
			c0.27-0.06,0.55-0.13,0.81-0.21c0.9-0.24,1.76-0.51,2.58-0.81c0.27-0.09,0.54-0.2,0.81-0.31c0.26-0.1,0.52-0.21,0.78-0.32
			C738.36,519.66,738.59,519.55,738.82,519.45z"/>
	</g>
	<linearGradient id="SVGID_6_" gradientUnits="userSpaceOnUse" x1="199.84" y1="430.42" x2="237.28" y2="430.42">
		<stop  offset="0" style="stop-color:#5A5E61"/>
		<stop  offset="1" style="stop-color:#CFD1D2"/>
	</linearGradient>
	<rect x="199.84" y="393.76" class="st18" width="37.44" height="73.32"/>
	<polygon class="st19" points="199.84,393.76 183.28,404.32 183.28,467.08 199.84,467.08 	"/>
	<path class="st19" d="M162.64,418.96v48.12h-8.94c-0.03-0.6-0.06-1.2-0.08-1.8c-0.01-0.14-0.02-0.27-0.02-0.41
		c-0.04-0.87-0.08-1.74-0.1-2.61c-0.07-1.65-0.11-3.31-0.14-4.97c-0.02-0.76-0.03-1.53-0.04-2.3c-0.01-1.15-0.02-2.3-0.02-3.45
		c0-9.27,0.42-18.44,1.26-27.49L162.64,418.96z"/>
	<linearGradient id="SVGID_7_" gradientUnits="userSpaceOnUse" x1="162.64" y1="443.02" x2="211.84" y2="443.02">
		<stop  offset="0" style="stop-color:#5A5E61"/>
		<stop  offset="1" style="stop-color:#CFD1D2"/>
	</linearGradient>
	<rect x="162.64" y="418.96" class="st20" width="49.2" height="48.12"/>
	<polygon class="st19" points="226.48,467.08 226.48,377.44 239.44,362.32 239.44,467.08 	"/>
	<linearGradient id="SVGID_8_" gradientUnits="userSpaceOnUse" x1="239.44" y1="414.7" x2="308.32" y2="414.7">
		<stop  offset="0" style="stop-color:#5A5E61"/>
		<stop  offset="1" style="stop-color:#CFD1D2"/>
	</linearGradient>
	<rect x="239.44" y="362.32" class="st21" width="68.88" height="104.76"/>
	<polygon class="st19" points="266.56,414.7 266.56,467.08 282.64,467.08 282.64,404.08 	"/>
	<linearGradient id="SVGID_9_" gradientUnits="userSpaceOnUse" x1="282.64" y1="435.58" x2="334.72" y2="435.58">
		<stop  offset="0" style="stop-color:#5A5E61"/>
		<stop  offset="1" style="stop-color:#CFD1D2"/>
	</linearGradient>
	<rect x="282.64" y="404.08" class="st22" width="52.08" height="63"/>
	<path d="M746.38,465.28c0,0.1,0,0.2-0.01,0.3c-0.02,0.46-0.04,0.92-0.07,1.38c-0.03,0.64-0.06,1.28-0.1,1.92H153.81
		c-0.03-0.3-0.05-0.6-0.05-0.9c-0.02-0.15-0.02-0.3-0.03-0.45c-0.01-0.15-0.02-0.3-0.03-0.45c-0.03-0.6-0.06-1.2-0.08-1.8H746.38z"
		/>
	<path class="st23" d="M243.28,218.74h183.84v156l125.76,102.72l102.36,101.28c0,0,4.44,3.48,4.44,5.16c0,1.68-1.92,5.04,2.64,10.2
		c4.56,5.16,7.8,8.76,7.8,11.88s0.12,5.16,3.6,6.84c3.48,1.68,7.56,3.84,7.68,6.36s-6.36,6.24-8.76,8.16
		c-2.4,1.92-4.44,2.28-4.44,4.44c0,2.16-2.28,4.08-3.36,4.68c-1.08,0.6,0,20.04-0.36,21.6c-0.36,1.56-3.12,2.52-3.84,5.04
		c-0.72,2.52-3.48,3.6-4.92,2.64c-1.44-0.96-0.6,1.92,0.36,2.4c0.96,0.48,0.84,2.16-0.12,2.88c-0.96,0.72-1.2,1.92,0.48,2.16
		s3,0.24,1.8,3s-3.84,3.84-3.24,5.64s2.16,3,4.56,3s7.44,2.4,7.92,4.92c0.48,2.52-2.64,10.2-5.64,11.16
		c-3,0.96-8.64,2.04-11.76,2.04s-98.4,9-98.4,9s-0.36-7.08-3-8.04c-2.64-0.96-3.36-0.36-3.12-2.52c0.24-2.16,1.44-2.88,0.24-3.84
		c-1.2-0.96-3.72-3.12-2.04-3.24s3,1.32,2.16-2.52c-0.84-3.84-3.84-14.16-12.72-23.28s-15.12-12-18.24-13.44
		c-3.12-1.44-3.84-2.88-4.92-5.04c-1.08-2.16-2.88-3-4.8-2.88c-1.92,0.12-3.36-0.84-2.4-1.44c0.96-0.6-2.28,0.48-2.16,2.64
		c0.12,2.16-5.4,1.56-5.76,0.48c-0.36-1.08,0.72-1.32,1.2-3.48c0.48-2.16-1.8-7.68-4.08-10.32c-2.28-2.64-7.68-3.24-9.96-1.92
		c-2.28,1.32-2.28,2.88-4.92,2.16c-2.64-0.72-9.6-4.08-12.84-6.6c-3.24-2.52-52.8-20.16-58.32-21.6s-6.24-7.2-5.52-11.76
		s-1.2-6-2.4-6.72c-1.2-0.72,0.48-7.2,0.72-10.08c0.16-1.9-1.38-3.11-3.14-3.84c-1.97-0.82-4.36-0.2-6.25-1.2
		c-2.21-1.16-2.77-4.57-1.04-6.37c0.85-0.89,2.16-1.48,2.47-2.67c0.37-1.44-0.94-2.7-2.12-3.61c-0.89-0.69-1.84-1.4-2.95-1.58
		c-0.79-0.13-1.61,0.02-2.4-0.12c-3.73-0.66-3.86-6.48-7.13-8.38c-1.78-1.03-4.54-1-5.15-2.97c-0.24-0.78-0.01-1.63-0.22-2.42
		c-0.18-0.69-0.68-1.25-1.17-1.77c-2.07-2.26-4.15-4.52-6.22-6.78c-5.91-6.45-8.94-13.38-15.34-19.35
		c-2.12-1.98-4.56-4.08-4.88-6.97c-0.24-2.21,0.85-4.52,0.12-6.63c-0.4-1.15-1.3-2.05-1.83-3.14c-0.54-1.09-0.57-2.64,0.45-3.29
		c1.69,1.58,4.92,0.8,5.69-1.38c0.7-1.95-0.37-4.36,0.79-6.08c0.28-0.42,0.7-0.8,0.77-1.3c0.07-0.52-0.25-1-0.56-1.42
		c-1.3-1.8-2.59-3.6-3.89-5.4c-0.26-0.37-0.56-0.76-0.99-0.88c-0.45-0.13-0.92,0.05-1.36,0.21c-2.47,0.93-5.31,1.42-7.7,0.29
		c-1.45-0.69-2.58-1.9-3.67-3.09c-2.65-2.89-5.31-5.78-7.96-8.68c-0.52-0.57-1.06-1.17-1.23-1.93c-0.3-1.35,0.66-2.61,1.06-3.94
		c0.65-2.2-0.31-4.55-1.5-6.51s-2.66-3.83-3.15-6.07c-0.3-1.36-0.22-2.76-0.14-4.15c0.15-2.58,0.3-5.16,0.45-7.75
		c0.06-1.1,0.16-2.28,0.86-3.13c0.7-0.85,2.25-1.05,2.82-0.11c0.22,0.37,0.25,0.82,0.27,1.25c0.18,3.43,0.61,7.15,3.03,9.59
		c0.89,0.89,1.98,1.55,3.07,2.19c3.26,1.94,6.64,4.06,8.46,7.38c0.91-0.83,1.81-1.66,2.72-2.49c-3.02-0.97-5.27-3.99-5.33-7.16
		c-0.01-0.72,0.07-1.45-0.12-2.14c-0.54-1.98-2.91-2.71-4.91-3.12c0.08-0.71,0.59-1.35,1.26-1.58c-1.48-0.44-2.96-0.88-4.45-1.32
		c-1.61-0.48-0.04-3.2-0.12-4.88c-0.1-2-2.37-3.59-4.28-2.99c-0.77-0.81-0.09-2.21,0.88-2.76c0.97-0.55,2.15-0.63,3.13-1.17
		c1.43-0.78,2.23-2.57,1.85-4.15c-0.38-1.58-1.92-2.81-3.55-2.82c-1.04,0-2.03,0.43-3.06,0.54s-2.27-0.3-2.54-1.31
		c-0.54,1.63,0.16,3.58,1.62,4.49c-0.7,0.34-1.4,0.69-2.1,1.03c0.7,0.34,1.43,0.7,1.9,1.33c0.47,0.62,0.58,1.59,0.04,2.15
		c-0.42,0.44-1.14,0.54-1.48,1.05c-0.97,1.47,2.42,2.47,2.45,4.23c-0.7-0.2-1.4-0.4-2.1-0.6c-0.05,0.84-0.1,1.69-0.15,2.53
		c-3.19-0.49-6.13-2.47-7.78-5.25c-0.44,0.82-0.88,1.65-1.32,2.47c-2.95-3.48-6.23-6.68-9.78-9.54c-1.17,1.37-1.76,3.22-1.57,5.02
		c-0.91-0.02-1.46-1.11-1.35-2.01c0.12-0.9,0.66-1.68,1.05-2.51c1.25-2.65,0.74-6.03-1.23-8.2c1.04-0.11,2.1,0.15,2.98,0.71
		c-1.74-2.74-4.17-5.83-7.4-5.48c0.36-0.04-0.11-3.64-0.29-4.03c-0.6-1.26-2.28-2.39-3.27-3.37c-2.53-2.49-5.06-4.97-7.59-7.46
		c-5.06-4.97-10.12-9.95-15.19-14.92c-0.81-0.79-1.67-1.71-1.68-2.84c-0.01-1.08,0.75-1.98,1.21-2.95c1.24-2.69,0.06-5.87-1.46-8.41
		s-3.44-5.03-3.74-7.98c-0.39-3.74,1.91-7.2,2.6-10.9c1.41-7.54-3.74-13.32-7.13-19.42c-3.49-6.29-7.82-12.45-14.21-16.07
		c-2.32-1.31-5.25-2.85-5.21-5.51c0.03-1.8,1.29-4.14-0.26-5.04c-0.26-0.15-0.55-0.22-0.8-0.38c-0.88-0.59-0.59-1.93-0.19-2.92
		c3.12-7.68,6.92-15.09,11.35-22.1c1.01-1.6,2.08-3.27,2.18-5.16c0.09-1.89-1.23-3.99-3.12-3.99c4.37-6.32,6.05-14.44,4.54-21.98
		c-0.36-1.81,0.06,0.61-0.19-1.22c-0.05-0.36-0.09-0.75,0.09-1.06c0.14-0.24,0.38-0.41,0.48-0.66c0.27-0.71-0.67-1.21-1.34-1.57
		c-1.31-0.7-2.1-2.13-2.4-3.58c-0.3-1.45-0.17-2.95-0.03-4.43c-2.38-0.46-4.57-1.81-6.04-3.73c1.93-0.37,3.19-2.4,3.32-4.37
		C244.1,222.58,244,220.57,243.28,218.74z"/>
	<linearGradient id="SVGID_10_" gradientUnits="userSpaceOnUse" x1="460.9583" y1="705.28" x2="460.9583" y2="212.08">
		<stop  offset="0.3631" style="stop-color:#FFC310"/>
		<stop  offset="1" style="stop-color:#FFFDF1"/>
	</linearGradient>
	<path class="st24" d="M246.16,212.08H430v156L555.76,470.8l102.36,101.28c0,0,4.44,3.48,4.44,5.16s-1.92,5.04,2.64,10.2
		s7.8,8.76,7.8,11.88s0.12,5.16,3.6,6.84c3.48,1.68,7.56,3.84,7.68,6.36c0.12,2.52-6.36,6.24-8.76,8.16
		c-2.4,1.92-4.44,2.28-4.44,4.44c0,2.16-2.28,4.08-3.36,4.68c-1.08,0.6,0,20.04-0.36,21.6s-3.12,2.52-3.84,5.04
		c-0.72,2.52-3.48,3.6-4.92,2.64c-1.44-0.96-0.6,1.92,0.36,2.4c0.96,0.48,0.84,2.16-0.12,2.88c-0.96,0.72-1.2,1.92,0.48,2.16
		s3,0.24,1.8,3s-3.84,3.84-3.24,5.64c0.6,1.8,2.16,3,4.56,3s7.44,2.4,7.92,4.92c0.48,2.52-2.64,10.2-5.64,11.16
		c-3,0.96-8.64,2.04-11.76,2.04s-98.4,9-98.4,9s-0.36-7.08-3-8.04c-2.64-0.96-3.36-0.36-3.12-2.52c0.24-2.16,1.44-2.88,0.24-3.84
		s-3.72-3.12-2.04-3.24s3,1.32,2.16-2.52c-0.84-3.84-3.84-14.16-12.72-23.28c-8.88-9.12-15.12-12-18.24-13.44
		c-3.12-1.44-3.84-2.88-4.92-5.04c-1.08-2.16-2.88-3-4.8-2.88c-1.92,0.12-3.36-0.84-2.4-1.44c0.96-0.6-2.28,0.48-2.16,2.64
		c0.12,2.16-5.4,1.56-5.76,0.48c-0.36-1.08,0.72-1.32,1.2-3.48c0.48-2.16-1.8-7.68-4.08-10.32s-7.68-3.24-9.96-1.92
		s-2.28,2.88-4.92,2.16c-2.64-0.72-9.6-4.08-12.84-6.6c-3.24-2.52-52.8-20.16-58.32-21.6c-5.52-1.44-6.24-7.2-5.52-11.76
		c0.72-4.56-1.2-6-2.4-6.72c-1.2-0.72,0.48-7.2,0.72-10.08c0.16-1.9-1.38-3.11-3.14-3.84c-1.97-0.82-4.36-0.2-6.25-1.2
		c-2.21-1.16-2.77-4.57-1.04-6.37c0.85-0.89,2.16-1.48,2.47-2.67c0.37-1.43-0.94-2.7-2.12-3.61c-0.89-0.69-1.84-1.4-2.95-1.58
		c-0.79-0.13-1.61,0.02-2.4-0.12c-3.73-0.66-3.86-6.48-7.13-8.38c-1.78-1.03-4.54-1-5.15-2.97c-0.24-0.78-0.01-1.63-0.22-2.42
		c-0.18-0.69-0.68-1.25-1.17-1.77c-2.07-2.26-4.15-4.52-6.22-6.78c-5.91-6.45-8.94-13.38-15.34-19.35
		c-2.12-1.98-4.56-4.08-4.88-6.97c-0.24-2.21,0.85-4.52,0.12-6.63c-0.4-1.15-1.3-2.05-1.83-3.14c-0.54-1.09-0.57-2.64,0.45-3.29
		c1.69,1.58,4.92,0.8,5.69-1.38c0.7-1.95-0.37-4.36,0.79-6.08c0.28-0.42,0.7-0.8,0.77-1.3c0.07-0.52-0.25-1-0.56-1.42
		c-1.3-1.8-2.59-3.6-3.89-5.4c-0.26-0.37-0.56-0.76-0.99-0.88c-0.45-0.13-0.92,0.05-1.36,0.21c-2.47,0.93-5.31,1.42-7.7,0.29
		c-1.45-0.69-2.58-1.9-3.67-3.09c-2.65-2.89-5.31-5.78-7.96-8.68c-0.52-0.57-1.06-1.17-1.23-1.93c-0.3-1.35,0.66-2.61,1.06-3.94
		c0.65-2.2-0.31-4.55-1.5-6.51c-1.19-1.96-2.66-3.83-3.15-6.07c-0.3-1.36-0.22-2.76-0.14-4.15c0.15-2.58,0.3-5.16,0.45-7.75
		c0.06-1.1,0.16-2.28,0.86-3.13c0.7-0.85,2.25-1.05,2.82-0.11c0.22,0.37,0.25,0.82,0.27,1.25c0.18,3.43,0.61,7.15,3.03,9.59
		c0.89,0.89,1.98,1.55,3.07,2.19c3.26,1.94,6.64,4.06,8.46,7.38c0.91-0.83,1.81-1.66,2.72-2.49c-3.02-0.97-5.27-3.99-5.33-7.16
		c-0.01-0.72,0.07-1.45-0.12-2.14c-0.54-1.98-2.91-2.71-4.91-3.12c0.08-0.71,0.59-1.35,1.26-1.58c-1.48-0.44-2.96-0.88-4.45-1.32
		c-1.61-0.48-0.04-3.2-0.12-4.88c-0.1-2-2.37-3.59-4.28-2.99c-0.77-0.81-0.09-2.21,0.88-2.76c0.97-0.55,2.15-0.63,3.13-1.17
		c1.43-0.78,2.23-2.57,1.85-4.15c-0.38-1.58-1.92-2.81-3.55-2.82c-1.04,0-2.03,0.43-3.06,0.54c-1.03,0.1-2.27-0.3-2.54-1.31
		c-0.54,1.63,0.16,3.58,1.62,4.49c-0.7,0.34-1.4,0.69-2.1,1.03c0.7,0.34,1.43,0.7,1.9,1.33c0.47,0.62,0.58,1.59,0.04,2.15
		c-0.42,0.44-1.14,0.54-1.48,1.05c-0.97,1.47,2.42,2.47,2.45,4.23c-0.7-0.2-1.4-0.4-2.1-0.6c-0.05,0.84-0.1,1.69-0.15,2.53
		c-3.19-0.49-6.13-2.47-7.78-5.25c-0.44,0.82-0.88,1.65-1.32,2.47c-2.95-3.48-6.23-6.68-9.78-9.54c-1.17,1.37-1.76,3.22-1.57,5.02
		c-0.91-0.02-1.46-1.11-1.35-2.01s0.66-1.68,1.05-2.51c1.25-2.65,0.74-6.03-1.23-8.2c1.04-0.11,2.1,0.15,2.98,0.71
		c-1.74-2.74-4.17-5.83-7.4-5.48c0.36-0.04-0.11-3.64-0.29-4.03c-0.6-1.26-2.28-2.39-3.27-3.37c-2.53-2.49-5.06-4.97-7.59-7.46
		c-5.06-4.97-10.12-9.95-15.19-14.92c-0.81-0.79-1.67-1.71-1.68-2.84c-0.01-1.08,0.75-1.98,1.21-2.95c1.24-2.69,0.06-5.87-1.46-8.41
		s-3.44-5.03-3.74-7.98c-0.39-3.74,1.91-7.2,2.6-10.9c1.41-7.54-3.74-13.32-7.13-19.42c-3.49-6.29-7.82-12.45-14.21-16.07
		c-2.32-1.31-5.25-2.85-5.21-5.51c0.03-1.8,1.29-4.14-0.26-5.04c-0.26-0.15-0.55-0.22-0.8-0.38c-0.88-0.59-0.59-1.93-0.19-2.92
		c3.12-7.68,6.92-15.09,11.35-22.1c1.01-1.6,2.08-3.27,2.18-5.16c0.09-1.89-1.23-3.99-3.12-3.99c4.37-6.32,6.05-14.44,4.54-21.98
		c-0.36-1.81,0.06,0.61-0.19-1.22c-0.05-0.36-0.09-0.75,0.09-1.06c0.14-0.24,0.38-0.41,0.48-0.66c0.27-0.71-0.67-1.21-1.34-1.57
		c-1.31-0.7-2.1-2.13-2.4-3.58s-0.17-2.95-0.03-4.43c-2.38-0.46-4.57-1.81-6.04-3.73c1.93-0.37,3.19-2.4,3.32-4.37
		C246.98,215.92,246.88,213.91,246.16,212.08z"/>
	<g>
		<rect x="304.54" y="681.76" class="st10" width="120.96" height="14.64"/>
		<g>
			<rect x="327.62" y="670.46" class="st11" width="74.8" height="9.28"/>
			<path class="st10" d="M401.92,670.96v8.28h-73.8v-8.28H401.92 M402.92,669.96h-1h-73.8h-1v1v8.28v1h1h73.8h1v-1v-8.28V669.96
				L402.92,669.96z"/>
		</g>
		<rect x="305.8" y="684.16" class="st11" width="118.44" height="6.24"/>
		<g>
			<rect x="304.54" y="696.4" class="st25" width="120.96" height="5.76"/>
		</g>
		<rect x="353.44" y="516.69" class="st10" width="16.89" height="151.21"/>
		<rect x="359.56" y="518.98" class="st11" width="8.76" height="147.1"/>
		<rect x="278.65" y="514.4" class="st10" width="85.29" height="4.58"/>
		<polygon class="st10" points="278.65,514.4 233.2,592.53 236.8,592.53 280,518.98 		"/>
		<polygon class="st10" points="280,518.98 322.72,592.53 326.56,592.53 281.92,516.69 		"/>
		<path class="st10" d="M233.2,592.53h93.36c0,0-10.86,39.97-46.68,39.97S231.16,602.6,233.2,592.53z"/>
		<linearGradient id="SVGID_11_" gradientUnits="userSpaceOnUse" x1="244.78" y1="610.99" x2="323.98" y2="610.99">
			<stop  offset="0" style="stop-color:#FFC310"/>
			<stop  offset="1" style="stop-color:#FFFDF1"/>
		</linearGradient>
		<path class="st26" d="M244.78,595.24h79.2c0,0-9.18,31.5-42.48,31.5S244.78,595.24,244.78,595.24z"/>
		<rect x="346.12" y="514.4" class="st10" width="99.48" height="4.58"/>
		<polygon class="st10" points="442.33,514.4 396.88,592.53 400.48,592.53 444.11,517.96 		"/>
		<polygon class="st10" points="444.11,517.96 486.4,592.53 490.24,592.53 445.6,514.4 		"/>
		<path class="st10" d="M396.88,592.53h93.36c0,0-10.86,39.97-46.68,39.97S394.84,602.6,396.88,592.53z"/>
		<linearGradient id="SVGID_12_" gradientUnits="userSpaceOnUse" x1="408.46" y1="610.99" x2="487.66" y2="610.99">
			<stop  offset="0" style="stop-color:#FFC310"/>
			<stop  offset="1" style="stop-color:#FFFDF1"/>
		</linearGradient>
		<path class="st27" d="M408.46,595.24h79.2c0,0-9.18,31.5-42.48,31.5S408.46,595.24,408.46,595.24z"/>
		<path class="st10" d="M372.49,505.33c0,0.45-0.04,0.89-0.13,1.33c-0.8,4.04-5.19,7.13-10.49,7.13c-5.87,0-10.62-3.79-10.62-8.46
			c0-2.87,1.79-5.41,4.54-6.93c1.72-0.97,3.82-1.53,6.08-1.53C367.74,496.87,372.49,500.66,372.49,505.33z"/>
		<linearGradient id="SVGID_13_" gradientUnits="userSpaceOnUse" x1="353.44" y1="504.867" x2="371.98" y2="504.867">
			<stop  offset="0" style="stop-color:#FFC310"/>
			<stop  offset="1" style="stop-color:#FFFDF1"/>
		</linearGradient>
		<path class="st28" d="M371.98,506.22c0,0.45-0.04,0.89-0.13,1.33c-1.59,2.63-4.88,4.43-8.69,4.43c-5.37,0-9.72-3.59-9.72-8.01
			c0-1.75,0.68-3.36,1.84-4.68c1.72-0.97,3.82-1.53,6.08-1.53C367.23,497.76,371.98,501.55,371.98,506.22z"/>
	</g>
</g>
<g id="Layer_4">
	<path class="st10" d="M526.12,367.54l-1.37,2.62L514,390.64c0,0-3.68,35.29-7.15,68.49c-0.01,0.03-0.01,0.07-0.02,0.11
		c-2.99,28.76-5.83,55.91-5.97,57.22c-0.3,2.82,0.54,5.34-8.58,5.34c-9.12,0-8.28-2.52-8.58-5.34s-13.14-125.82-13.14-125.82
		l-10.75-20.48l-1.37-2.62H526.12z"/>
	<path class="st11" d="M513.35,396.84c-1.2,11.56-3.91,37.51-6.5,62.29c-0.01,0.03-0.01,0.07-0.02,0.11
		c-3.52,24.77-6.72,47.72-7.11,52c-0.26,2.86-0.71,4.78-1.38,6.07l-0.04,0.09c-1.26,2.39-3.26,2.54-6.02,2.47
		c-0.83-0.02-1.73-0.05-2.7-0.05L479.23,398.8c8.11,0.82,15.52,0.58,21.34,0.03c4.38-0.4,7.87-0.98,10.09-1.41
		C512.39,397.08,513.35,396.84,513.35,396.84z"/>
	<path class="st29" d="M510.66,397.42l-12.32,119.89l-0.04,0.09c-1.26,2.39-3.26,2.54-6.02,2.47c3.81-32.56,6.71-86.83,8.29-121.04
		C504.95,398.43,508.44,397.85,510.66,397.42z"/>
	<path class="st10" d="M530.08,359.08v10.26c0,0-0.96,0.19-2.8,0.46c-0.71,0.11-1.56,0.23-2.53,0.36
		c-6.1,0.79-17.25,1.88-32.47,1.88c-5.71,0-10.86-0.15-15.37-0.39c-7.51-0.39-13.29-1-17.1-1.49c-3.49-0.46-5.33-0.82-5.33-0.82
		v-10.26c5.41,1.3,13.35,2.27,21.6,2.84c5.48,0.38,11.1,0.58,16.2,0.58c11.69,0,26.1-1.05,35.36-2.89
		C528.5,359.44,529.32,359.26,530.08,359.08z"/>
	<path class="st10" d="M521.62,336.04v8.64c0,0-10.08,3.24-29.34,3.24c-7.09,0-12.93-0.44-17.49-1c-7.83-0.95-11.85-2.24-11.85-2.24
		v-8.64c3.85,0.99,7.62,1.69,11.11,2.19c10.37,1.45,18.23,1.05,18.23,1.05S506.32,340,521.62,336.04z"/>
	<path class="st10" d="M530.08,346.6v10.32c0,0-0.84,0.14-2.36,0.36c-5.49,0.8-19.84,2.64-35.44,2.64c-5.78,0-11.38-0.25-16.43-0.61
		c-12.36-0.88-21.37-2.39-21.37-2.39V346.6c0,0,8.22,2.22,20.59,3.52c5.12,0.54,10.95,0.92,17.21,0.92
		c16.94,0,30.79-2.79,35.79-3.95C529.38,346.79,530.08,346.6,530.08,346.6z"/>
	<path class="st11" d="M524.75,370.16L514,390.64c-0.87,0.32-1.78,0.6-2.73,0.86c-3.19,0.87-6.81,1.43-10.45,1.77
		c-10.94,1.06-22.04,0.24-22.04,0.24l-1.87-21.86c4.51,0.24,9.66,0.39,15.37,0.39c3.35,0,6.5-0.05,9.44-0.14
		c4.34-0.14,8.23-0.35,11.63-0.6C518.14,370.94,521.97,370.52,524.75,370.16z"/>
	<linearGradient id="SVGID_14_" gradientUnits="userSpaceOnUse" x1="477.2852" y1="365.9434" x2="526.4922" y2="365.9434">
		<stop  offset="0.3631" style="stop-color:#FFC310"/>
		<stop  offset="1" style="stop-color:#FFFDF1"/>
	</linearGradient>
	<path class="st30" d="M492.28,370.94c-4.97,0-9.79-0.11-14.36-0.34l-0.64-7.5c5.09,0.33,10.25,0.5,15,0.5
		c11.89,0,25.38-1.06,34.21-2.65l-0.28,7.9c-0.49,0.07-1.03,0.15-1.61,0.22C518.02,369.92,507.06,370.94,492.28,370.94z"/>
	<linearGradient id="SVGID_15_" gradientUnits="userSpaceOnUse" x1="475.2617" y1="342.1348" x2="520.5205" y2="342.1348">
		<stop  offset="0.3631" style="stop-color:#FFC310"/>
		<stop  offset="1" style="stop-color:#FFFDF1"/>
	</linearGradient>
	<path class="st31" d="M492.28,346.82c-5.82,0-11.36-0.3-16.47-0.89l-0.55-6.43c5.97,0.76,11.01,0.93,14.28,0.93
		c1.54,0,2.5-0.04,2.74-0.05c0.24,0.01,1.2,0.05,2.75,0.05c5.02,0,14.83-0.4,25.49-2.98v6.4
		C517.84,344.57,508.18,346.82,492.28,346.82z"/>
	<linearGradient id="SVGID_16_" gradientUnits="userSpaceOnUse" x1="476.2783" y1="353.6477" x2="526.9219" y2="353.6477">
		<stop  offset="0.3631" style="stop-color:#FFC310"/>
		<stop  offset="1" style="stop-color:#FFFDF1"/>
	</linearGradient>
	<path class="st32" d="M492.28,358.82c-4.91,0-10.09-0.18-15.41-0.54l-0.59-6.93c5.38,0.53,10.76,0.79,16,0.79
		c15.69,0,28.66-2.36,34.64-3.66l-0.27,7.85C520.66,357.17,507.04,358.82,492.28,358.82z"/>
	<path class="st10" d="M506.08,502.12v9.96c0,0-5.16,3.24-13.8,3.24c-8.64,0-13.8-3.24-13.8-3.24v-9.96c0,0,7.68,2.64,13.8,2.64
		C498.4,504.76,506.08,502.12,506.08,502.12z"/>
	<linearGradient id="SVGID_17_" gradientUnits="userSpaceOnUse" x1="479.6807" y1="508.9395" x2="504.8799" y2="508.9395">
		<stop  offset="0.3631" style="stop-color:#FFC310"/>
		<stop  offset="1" style="stop-color:#FFFDF1"/>
	</linearGradient>
	<path class="st33" d="M492.28,514.12c-6.58,0-11.08-1.97-12.6-2.75v-7.61c2.62,0.78,7.98,2.2,12.6,2.2s9.98-1.42,12.6-2.2v7.61
		C503.36,512.15,498.86,514.12,492.28,514.12z"/>
	<path class="st29" d="M513.35,371.3l-2.08,20.2c-3.19,0.87-6.81,1.43-10.45,1.77c0.43-9.48,0.73-16.97,0.9-21.37
		C506.06,371.76,509.95,371.55,513.35,371.3z"/>
	<linearGradient id="SVGID_18_" gradientUnits="userSpaceOnUse" x1="490.5431" y1="335.0219" x2="490.5431" y2="238.0066">
		<stop  offset="0.3631" style="stop-color:#FFC310"/>
		<stop  offset="1" style="stop-color:#FFFDF1"/>
	</linearGradient>
	<path class="st34" d="M467.05,267.07c-8.07,11.35-13.84,24.67-14.42,38.58c-0.12,3.01,0,6.09,1.01,8.93
		c0.92,2.62,2.56,4.93,4.4,7.01c6.96,7.85,17.18,12.59,27.64,13.32s21.08-2.47,29.68-8.46c2.34-1.63,4.56-3.48,6.41-5.65
		c3.64-4.27,5.77-9.7,6.5-15.26c0.35-2.7,0.38-5.5-0.5-8.08c-1.55-4.56-5.6-7.71-8.8-11.3c-7.9-8.87-10.82-20.72-14.64-31.66
		c-1.57-4.5-3.56-12.77-7.3-15.99c-2.24-1.93-5.09,2.1-7.07,3.87c-2.53,2.27-5.03,4.57-7.46,6.95
		C476.88,254.82,471.6,260.67,467.05,267.07z"/>
	<path class="st10" d="M504.19,274.29c2.91,3.25,6.23,6.14,9.86,8.58c2.81,1.89,5.81,3.52,8.33,5.78c3.48,3.12,5.91,7.41,6.8,12
		c0.89,4.59,0.23,9.47-1.84,13.67c-2.16,4.38-5.77,7.92-9.79,10.7c-4.02,2.77-8.48,4.85-12.91,6.9c3.83-4.54,7.35-9.43,9.65-14.91
		c2.3-5.48,3.33-11.61,2.11-17.43c-0.54-2.55-1.53-5.06-3.21-7.05c-1.52-1.8-3.53-3.11-5.38-4.58c-3.91-3.1-7.22-7.09-8.94-11.78
		c-1.6-4.38-1.89-9.98,0.43-14.18C498.41,266.64,501.23,270.99,504.19,274.29z"/>
	<path class="st29" d="M489.84,263.65c2.49,9.06,5.09,18.34,10.67,25.89c1.29,1.74,2.72,3.37,3.87,5.21
		c3.05,4.88,3.82,11.07,2.32,16.63s-5.17,10.45-9.95,13.67c-2.28,1.54-4.83,2.71-7.53,3.26c-2.26,0.46-4.59,0.48-6.89,0.29
		c-4.11-0.34-8.41-1.47-11.23-4.48c-1.86-1.98-2.89-4.57-3.78-7.13c-0.93-2.7-1.74-5.45-2.43-8.22c-2.6-10.53-3.26-22.18,1.81-31.77
		c3.02-5.71,7.79-10.17,12.49-14.48c2.17-1.99,4.49-5.13,6.98-6.63c1.82-1.1,1.64,0.41,2.14,2.22
		C488.82,259.96,489.33,261.8,489.84,263.65z"/>
	<path class="st10" d="M469.19,320.03c-0.84-4.54-0.48-9.24,0.43-13.77c1.11-5.51,3.05-11.27,1.24-16.59
		c-0.95-2.81-2.93-5.5-2.43-8.42c-2.43,3.47-5.17,6.74-7.36,10.37c-6.23,10.35-2.9,22.91,3.96,32.02c2.12,2.82,5.73,6.97,9.27,7.8
		c-0.21-1.66-2.15-3.38-2.94-4.9C470.33,324.49,469.61,322.28,469.19,320.03z"/>
	<path class="st10" d="M482.93,275.46c-0.49,2.24-0.58,4.63,0.25,6.76c1.22,3.14,4.21,5.21,7.17,6.81c2.96,1.6,6.15,3.01,8.39,5.52
		c4.24,4.75,3.82,12.32,0.73,17.89c-3.09,5.57-8.31,9.58-13.4,13.4c1.52-3.78,4-7.14,5.32-10.99c2.32-6.73,0.67-14.66-4.14-19.91
		c-2.32-2.54-5.26-4.42-7.77-6.78s-4.67-5.42-4.7-8.86c-0.03-3.37,1.97-6.39,4.08-9.02c1.72-2.14,3.58-4.17,5.55-6.08
		c2.98-2.89,6.45-5.59,8.57-9.23C490.36,262.16,484.6,267.87,482.93,275.46z"/>
</g>
</svg>
